<svg version="1.1" viewBox="0.0 0.0 600.0 347.0" fill="none" stroke="none" stroke-linecap="square" stroke-miterlimit="10" width="600" height="347" xmlns:xlink="http://www.w3.org/1999/xlink" xmlns="http://www.w3.org/2000/svg"><path fill="#ffffff" d="M0 0L600.0 0L600.0 347.0L0 347.0L0 0Z" fill-rule="nonzero"/><path stroke="#cccccc" stroke-width="1.0" stroke-linecap="butt" d="M97.5 28.5L97.5 308.5" fill-rule="nonzero"/><path stroke="#cccccc" stroke-width="1.0" stroke-linecap="butt" d="M178.5 28.5L178.5 308.5" fill-rule="nonzero"/><path stroke="#cccccc" stroke-width="1.0" stroke-linecap="butt" d="M259.5 28.5L259.5 308.5" fill-rule="nonzero"/><path stroke="#cccccc" stroke-width="1.0" stroke-linecap="butt" d="M340.5 28.5L340.5 308.5" fill-rule="nonzero"/><path stroke="#cccccc" stroke-width="1.0" stroke-linecap="butt" d="M421.5 28.5L421.5 308.5" fill-rule="nonzero"/><path stroke="#cccccc" stroke-width="1.0" stroke-linecap="butt" d="M501.5 28.5L501.5 308.5" fill-rule="nonzero"/><path stroke="#cccccc" stroke-width="1.0" stroke-linecap="butt" d="M582.5 28.5L582.5 308.5" fill-rule="nonzero"/><path stroke="#e6e6e6" stroke-width="1.0" stroke-linecap="butt" d="M49.5 28.5L49.5 308.5" fill-rule="nonzero"/><path stroke="#e6e6e6" stroke-width="1.0" stroke-linecap="butt" d="M65.5 28.5L65.5 308.5" fill-rule="nonzero"/><path stroke="#e6e6e6" stroke-width="1.0" stroke-linecap="butt" d="M81.5 28.5L81.5 308.5" fill-rule="nonzero"/><path stroke="#e6e6e6" stroke-width="1.0" stroke-linecap="butt" d="M114.5 28.5L114.5 308.5" fill-rule="nonzero"/><path stroke="#e6e6e6" stroke-width="1.0" stroke-linecap="butt" d="M130.5 28.5L130.5 308.5" fill-rule="nonzero"/><path stroke="#e6e6e6" stroke-width="1.0" stroke-linecap="butt" d="M146.5 28.5L146.5 308.5" fill-rule="nonzero"/><path stroke="#e6e6e6" stroke-width="1.0" stroke-linecap="butt" d="M162.5 28.5L162.5 308.5" fill-rule="nonzero"/><path stroke="#e6e6e6" stroke-width="1.0" stroke-linecap="butt" d="M194.5 28.5L194.5 308.5" fill-rule="nonzero"/><path stroke="#e6e6e6" stroke-width="1.0" stroke-linecap="butt" d="M211.5 28.5L211.5 308.5" fill-rule="nonzero"/><path stroke="#e6e6e6" stroke-width="1.0" stroke-linecap="butt" d="M227.5 28.5L227.5 308.5" fill-rule="nonzero"/><path stroke="#e6e6e6" stroke-width="1.0" stroke-linecap="butt" d="M243.5 28.5L243.5 308.5" fill-rule="nonzero"/><path stroke="#e6e6e6" stroke-width="1.0" stroke-linecap="butt" d="M275.5 28.5L275.5 308.5" fill-rule="nonzero"/><path stroke="#e6e6e6" stroke-width="1.0" stroke-linecap="butt" d="M291.5 28.5L291.5 308.5" fill-rule="nonzero"/><path stroke="#e6e6e6" stroke-width="1.0" stroke-linecap="butt" d="M307.5 28.5L307.5 308.5" fill-rule="nonzero"/><path stroke="#e6e6e6" stroke-width="1.0" stroke-linecap="butt" d="M324.5 28.5L324.5 308.5" fill-rule="nonzero"/><path stroke="#e6e6e6" stroke-width="1.0" stroke-linecap="butt" d="M356.5 28.5L356.5 308.5" fill-rule="nonzero"/><path stroke="#e6e6e6" stroke-width="1.0" stroke-linecap="butt" d="M372.5 28.5L372.5 308.5" fill-rule="nonzero"/><path stroke="#e6e6e6" stroke-width="1.0" stroke-linecap="butt" d="M388.5 28.5L388.5 308.5" fill-rule="nonzero"/><path stroke="#e6e6e6" stroke-width="1.0" stroke-linecap="butt" d="M404.5 28.5L404.5 308.5" fill-rule="nonzero"/><path stroke="#e6e6e6" stroke-width="1.0" stroke-linecap="butt" d="M437.5 28.5L437.5 308.5" fill-rule="nonzero"/><path stroke="#e6e6e6" stroke-width="1.0" stroke-linecap="butt" d="M453.5 28.5L453.5 308.5" fill-rule="nonzero"/><path stroke="#e6e6e6" stroke-width="1.0" stroke-linecap="butt" d="M469.5 28.5L469.5 308.5" fill-rule="nonzero"/><path stroke="#e6e6e6" stroke-width="1.0" stroke-linecap="butt" d="M485.5 28.5L485.5 308.5" fill-rule="nonzero"/><path stroke="#e6e6e6" stroke-width="1.0" stroke-linecap="butt" d="M518.5 28.5L518.5 308.5" fill-rule="nonzero"/><path stroke="#e6e6e6" stroke-width="1.0" stroke-linecap="butt" d="M534.5 28.5L534.5 308.5" fill-rule="nonzero"/><path stroke="#e6e6e6" stroke-width="1.0" stroke-linecap="butt" d="M550.5 28.5L550.5 308.5" fill-rule="nonzero"/><path stroke="#e6e6e6" stroke-width="1.0" stroke-linecap="butt" d="M566.5 28.5L566.5 308.5" fill-rule="nonzero"/><path stroke="#cccccc" stroke-width="1.0" stroke-linecap="butt" d="M49.5 308.5L582.5 308.5" fill-rule="nonzero"/><path stroke="#cccccc" stroke-width="1.0" stroke-linecap="butt" d="M49.5 268.5L582.5 268.5" fill-rule="nonzero"/><path stroke="#cccccc" stroke-width="1.0" stroke-linecap="butt" d="M49.5 228.5L582.5 228.5" fill-rule="nonzero"/><path stroke="#cccccc" stroke-width="1.0" stroke-linecap="butt" d="M49.5 188.5L582.5 188.5" fill-rule="nonzero"/><path stroke="#cccccc" stroke-width="1.0" stroke-linecap="butt" d="M49.5 148.5L582.5 148.5" fill-rule="nonzero"/><path stroke="#cccccc" stroke-width="1.0" stroke-linecap="butt" d="M49.5 108.5L582.5 108.5" fill-rule="nonzero"/><path stroke="#cccccc" stroke-width="1.0" stroke-linecap="butt" d="M49.5 68.5L582.5 68.5" fill-rule="nonzero"/><path stroke="#cccccc" stroke-width="1.0" stroke-linecap="butt" d="M49.5 28.5L582.5 28.5" fill-rule="nonzero"/><path stroke="#000000" stroke-width="1.0" stroke-linecap="butt" stroke-opacity="0.0" d="M49.5 295.5L582.5 295.5" fill-rule="nonzero"/><path stroke="#000000" stroke-width="1.0" stroke-linecap="butt" stroke-opacity="0.0" d="M49.5 281.5L582.5 281.5" fill-rule="nonzero"/><path stroke="#000000" stroke-width="1.0" stroke-linecap="butt" stroke-opacity="0.0" d="M49.5 255.5L582.5 255.5" fill-rule="nonzero"/><path stroke="#000000" stroke-width="1.0" stroke-linecap="butt" stroke-opacity="0.0" d="M49.5 241.5L582.5 241.5" fill-rule="nonzero"/><path stroke="#000000" stroke-width="1.0" stroke-linecap="butt" stroke-opacity="0.0" d="M49.5 215.5L582.5 215.5" fill-rule="nonzero"/><path stroke="#000000" stroke-width="1.0" stroke-linecap="butt" stroke-opacity="0.0" d="M49.5 201.5L582.5 201.5" fill-rule="nonzero"/><path stroke="#000000" stroke-width="1.0" stroke-linecap="butt" stroke-opacity="0.0" d="M49.5 175.5L582.5 175.5" fill-rule="nonzero"/><path stroke="#000000" stroke-width="1.0" stroke-linecap="butt" stroke-opacity="0.0" d="M49.5 161.5L582.5 161.5" fill-rule="nonzero"/><path stroke="#000000" stroke-width="1.0" stroke-linecap="butt" stroke-opacity="0.0" d="M49.5 135.5L582.5 135.5" fill-rule="nonzero"/><path stroke="#000000" stroke-width="1.0" stroke-linecap="butt" stroke-opacity="0.0" d="M49.5 121.5L582.5 121.5" fill-rule="nonzero"/><path stroke="#000000" stroke-width="1.0" stroke-linecap="butt" stroke-opacity="0.0" d="M49.5 95.5L582.5 95.5" fill-rule="nonzero"/><path stroke="#000000" stroke-width="1.0" stroke-linecap="butt" stroke-opacity="0.0" d="M49.5 81.5L582.5 81.5" fill-rule="nonzero"/><path stroke="#000000" stroke-width="1.0" stroke-linecap="butt" stroke-opacity="0.0" d="M49.5 55.5L582.5 55.5" fill-rule="nonzero"/><path stroke="#000000" stroke-width="1.0" stroke-linecap="butt" stroke-opacity="0.0" d="M49.5 41.5L582.5 41.5" fill-rule="nonzero"/><clipPath id="id_0"><path d="M49.5 28.5L582.65 28.5L582.65 308.5L49.5 308.5L49.5 28.5Z" clip-rule="nonzero"/></clipPath><path stroke="#4285f4" stroke-width="2.0" stroke-linecap="butt" clip-path="url(#id_0)" d="M49.5 446.34L81.81212 384.02L114.124245 282.58L146.43637 191.3L178.74849 118.26L211.06061 93.3L243.37273 102.26L275.68484 102.18L307.99698 84.02L340.30908 85.46L372.62122 69.14L404.93332 91.14L437.24545 76.02L469.5576 64.26L501.8697 67.14L534.1818 59.78L566.49396 57.22L582.65 58.18" fill-rule="nonzero"/><path stroke="#ea4335" stroke-width="2.0" stroke-linecap="butt" clip-path="url(#id_0)" d="M49.5 286.74L81.81212 240.34L114.124245 217.94L146.43637 158.74L178.74849 121.14L211.06061 151.62L243.37273 155.38L275.68484 172.02L307.99698 125.86L340.30908 173.22L372.62122 161.94L404.93332 168.9L437.24545 174.34L469.5576 140.9L501.8697 181.62L534.1818 168.18L566.49396 169.54L582.65 172.9" fill-rule="nonzero"/><path fill="#000000" fill-opacity="0.0" clip-path="url(#id_0)" d="M52.5 446.34C52.5 447.99686 51.156853 449.34 49.5 449.34C47.843147 449.34 46.5 447.99686 46.5 446.34C46.5 444.68314 47.843147 443.34 49.5 443.34C51.156853 443.34 52.5 444.68314 52.5 446.34Z" fill-rule="nonzero"/><path fill="#000000" fill-opacity="0.0" clip-path="url(#id_0)" d="M84.81212 384.02C84.81212 385.67685 83.46898 387.02 81.81212 387.02C80.155266 387.02 78.81212 385.67685 78.81212 384.02C78.81212 382.36316 80.155266 381.02 81.81212 381.02C83.46898 381.02 84.81212 382.36316 84.81212 384.02Z" fill-rule="nonzero"/><path fill="#000000" fill-opacity="0.0" clip-path="url(#id_0)" d="M117.124245 282.58C117.124245 284.23685 115.7811 285.58 114.124245 285.58C112.46739 285.58 111.124245 284.23685 111.124245 282.58C111.124245 280.92316 112.46739 279.58 114.124245 279.58C115.7811 279.58 117.124245 280.92316 117.124245 282.58Z" fill-rule="nonzero"/><path fill="#000000" fill-opacity="0.0" clip-path="url(#id_0)" d="M149.43637 191.3C149.43637 192.95685 148.09322 194.3 146.43637 194.3C144.77951 194.3 143.43637 192.95685 143.43637 191.3C143.43637 189.64314 144.77951 188.3 146.43637 188.3C148.09322 188.3 149.43637 189.64314 149.43637 191.3Z" fill-rule="nonzero"/><path fill="#000000" fill-opacity="0.0" clip-path="url(#id_0)" d="M181.74849 118.26C181.74849 119.916855 180.40533 121.26 178.74849 121.26C177.09163 121.26 175.74849 119.916855 175.74849 118.26C175.74849 116.60315 177.09163 115.26 178.74849 115.26C180.40533 115.26 181.74849 116.60315 181.74849 118.26Z" fill-rule="nonzero"/><path fill="#000000" fill-opacity="0.0" clip-path="url(#id_0)" d="M214.06061 93.3C214.06061 94.956856 212.71745 96.3 211.06061 96.3C209.40375 96.3 208.06061 94.956856 208.06061 93.3C208.06061 91.64314 209.40375 90.3 211.06061 90.3C212.71745 90.3 214.06061 91.64314 214.06061 93.3Z" fill-rule="nonzero"/><path fill="#000000" fill-opacity="0.0" clip-path="url(#id_0)" d="M246.37273 102.26C246.37273 103.916855 245.02959 105.26 243.37273 105.26C241.71587 105.26 240.37273 103.916855 240.37273 102.26C240.37273 100.60315 241.71587 99.26 243.37273 99.26C245.02959 99.26 246.37273 100.60315 246.37273 102.26Z" fill-rule="nonzero"/><path fill="#000000" fill-opacity="0.0" clip-path="url(#id_0)" d="M278.68484 102.18C278.68484 103.83685 277.3417 105.18 275.68484 105.18C274.02798 105.18 272.68484 103.83685 272.68484 102.18C272.68484 100.52315 274.02798 99.18 275.68484 99.18C277.3417 99.18 278.68484 100.52315 278.68484 102.18Z" fill-rule="nonzero"/><path fill="#000000" fill-opacity="0.0" clip-path="url(#id_0)" d="M310.99698 84.02C310.99698 85.67686 309.65384 87.02 307.99698 87.02C306.34012 87.02 304.99698 85.67686 304.99698 84.02C304.99698 82.363144 306.34012 81.02 307.99698 81.02C309.65384 81.02 310.99698 82.363144 310.99698 84.02Z" fill-rule="nonzero"/><path fill="#000000" fill-opacity="0.0" clip-path="url(#id_0)" d="M343.30908 85.46C343.30908 87.11685 341.96594 88.46 340.30908 88.46C338.65222 88.46 337.30908 87.11685 337.30908 85.46C337.30908 83.80315 338.65222 82.46 340.30908 82.46C341.96594 82.46 343.30908 83.80315 343.30908 85.46Z" fill-rule="nonzero"/><path fill="#000000" fill-opacity="0.0" clip-path="url(#id_0)" d="M375.62122 69.14C375.62122 70.79685 374.27808 72.14 372.62122 72.14C370.96436 72.14 369.62122 70.79685 369.62122 69.14C369.62122 67.48315 370.96436 66.14 372.62122 66.14C374.27808 66.14 375.62122 67.48315 375.62122 69.14Z" fill-rule="nonzero"/><path fill="#000000" fill-opacity="0.0" clip-path="url(#id_0)" d="M407.93332 91.14C407.93332 92.79685 406.59018 94.14 404.93332 94.14C403.2765 94.14 401.93332 92.79685 401.93332 91.14C401.93332 89.48315 403.2765 88.14 404.93332 88.14C406.59018 88.14 407.93332 89.48315 407.93332 91.14Z" fill-rule="nonzero"/><path fill="#000000" fill-opacity="0.0" clip-path="url(#id_0)" d="M440.24545 76.02C440.24545 77.67686 438.9023 79.02 437.24545 79.02C435.5886 79.02 434.24545 77.67686 434.24545 76.02C434.24545 74.363144 435.5886 73.02 437.24545 73.02C438.9023 73.02 440.24545 74.363144 440.24545 76.02Z" fill-rule="nonzero"/><path fill="#000000" fill-opacity="0.0" clip-path="url(#id_0)" d="M472.5576 64.26C472.5576 65.916855 471.21442 67.26 469.5576 67.26C467.90073 67.26 466.5576 65.916855 466.5576 64.26C466.5576 62.603146 467.90073 61.26 469.5576 61.26C471.21442 61.26 472.5576 62.603146 472.5576 64.26Z" fill-rule="nonzero"/><path fill="#000000" fill-opacity="0.0" clip-path="url(#id_0)" d="M504.8697 67.14C504.8697 68.79685 503.52655 70.14 501.8697 70.14C500.21283 70.14 498.8697 68.79685 498.8697 67.14C498.8697 65.48315 500.21283 64.14 501.8697 64.14C503.52655 64.14 504.8697 65.48315 504.8697 67.14Z" fill-rule="nonzero"/><path fill="#000000" fill-opacity="0.0" clip-path="url(#id_0)" d="M537.1818 59.78C537.1818 61.436855 535.8387 62.78 534.1818 62.78C532.52496 62.78 531.1818 61.436855 531.1818 59.78C531.1818 58.123146 532.52496 56.78 534.1818 56.78C535.8387 56.78 537.1818 58.123146 537.1818 59.78Z" fill-rule="nonzero"/><path fill="#000000" fill-opacity="0.0" clip-path="url(#id_0)" d="M569.49396 57.22C569.49396 58.876854 568.1508 60.22 566.49396 60.22C564.8371 60.22 563.49396 58.876854 563.49396 57.22C563.49396 55.563145 564.8371 54.22 566.49396 54.22C568.1508 54.22 569.49396 55.563145 569.49396 57.22Z" fill-rule="nonzero"/><path fill="#000000" fill-opacity="0.0" clip-path="url(#id_0)" d="M585.65 58.18C585.65 59.836853 584.3069 61.18 582.65 61.18C580.99316 61.18 579.65 59.836853 579.65 58.18C579.65 56.523148 580.99316 55.18 582.65 55.18C584.3069 55.18 585.65 56.523148 585.65 58.18Z" fill-rule="nonzero"/><path fill="#000000" fill-opacity="0.0" clip-path="url(#id_0)" d="M52.5 286.74C52.5 288.39685 51.156853 289.74 49.5 289.74C47.843147 289.74 46.5 288.39685 46.5 286.74C46.5 285.08316 47.843147 283.74 49.5 283.74C51.156853 283.74 52.5 285.08316 52.5 286.74Z" fill-rule="nonzero"/><path fill="#000000" fill-opacity="0.0" clip-path="url(#id_0)" d="M84.81212 240.34C84.81212 241.99686 83.46898 243.34 81.81212 243.34C80.155266 243.34 78.81212 241.99686 78.81212 240.34C78.81212 238.68315 80.155266 237.34 81.81212 237.34C83.46898 237.34 84.81212 238.68315 84.81212 240.34Z" fill-rule="nonzero"/><path fill="#000000" fill-opacity="0.0" clip-path="url(#id_0)" d="M117.124245 217.94C117.124245 219.59685 115.7811 220.94 114.124245 220.94C112.46739 220.94 111.124245 219.59685 111.124245 217.94C111.124245 216.28314 112.46739 214.94 114.124245 214.94C115.7811 214.94 117.124245 216.28314 117.124245 217.94Z" fill-rule="nonzero"/><path fill="#000000" fill-opacity="0.0" clip-path="url(#id_0)" d="M149.43637 158.74C149.43637 160.39685 148.09322 161.74 146.43637 161.74C144.77951 161.74 143.43637 160.39685 143.43637 158.74C143.43637 157.08315 144.77951 155.74 146.43637 155.74C148.09322 155.74 149.43637 157.08315 149.43637 158.74Z" fill-rule="nonzero"/><path fill="#000000" fill-opacity="0.0" clip-path="url(#id_0)" d="M181.74849 121.14C181.74849 122.79685 180.40533 124.14 178.74849 124.14C177.09163 124.14 175.74849 122.79685 175.74849 121.14C175.74849 119.48315 177.09163 118.14 178.74849 118.14C180.40533 118.14 181.74849 119.48315 181.74849 121.14Z" fill-rule="nonzero"/><path fill="#000000" fill-opacity="0.0" clip-path="url(#id_0)" d="M214.06061 151.62C214.06061 153.27686 212.71745 154.62 211.06061 154.62C209.40375 154.62 208.06061 153.27686 208.06061 151.62C208.06061 149.96315 209.40375 148.62 211.06061 148.62C212.71745 148.62 214.06061 149.96315 214.06061 151.62Z" fill-rule="nonzero"/><path fill="#000000" fill-opacity="0.0" clip-path="url(#id_0)" d="M246.37273 155.38C246.37273 157.03685 245.02959 158.38 243.37273 158.38C241.71587 158.38 240.37273 157.03685 240.37273 155.38C240.37273 153.72314 241.71587 152.38 243.37273 152.38C245.02959 152.38 246.37273 153.72314 246.37273 155.38Z" fill-rule="nonzero"/><path fill="#000000" fill-opacity="0.0" clip-path="url(#id_0)" d="M278.68484 172.02C278.68484 173.67685 277.3417 175.02 275.68484 175.02C274.02798 175.02 272.68484 173.67685 272.68484 172.02C272.68484 170.36314 274.02798 169.02 275.68484 169.02C277.3417 169.02 278.68484 170.36314 278.68484 172.02Z" fill-rule="nonzero"/><path fill="#000000" fill-opacity="0.0" clip-path="url(#id_0)" d="M310.99698 125.86C310.99698 127.51685 309.65384 128.86 307.99698 128.86C306.34012 128.86 304.99698 127.51685 304.99698 125.86C304.99698 124.20315 306.34012 122.86 307.99698 122.86C309.65384 122.86 310.99698 124.20315 310.99698 125.86Z" fill-rule="nonzero"/><path fill="#000000" fill-opacity="0.0" clip-path="url(#id_0)" d="M343.30908 173.22C343.30908 174.87686 341.96594 176.22 340.30908 176.22C338.65222 176.22 337.30908 174.87686 337.30908 173.22C337.30908 171.56314 338.65222 170.22 340.30908 170.22C341.96594 170.22 343.30908 171.56314 343.30908 173.22Z" fill-rule="nonzero"/><path fill="#000000" fill-opacity="0.0" clip-path="url(#id_0)" d="M375.62122 161.94C375.62122 163.59685 374.27808 164.94 372.62122 164.94C370.96436 164.94 369.62122 163.59685 369.62122 161.94C369.62122 160.28314 370.96436 158.94 372.62122 158.94C374.27808 158.94 375.62122 160.28314 375.62122 161.94Z" fill-rule="nonzero"/><path fill="#000000" fill-opacity="0.0" clip-path="url(#id_0)" d="M407.93332 168.9C407.93332 170.55685 406.59018 171.9 404.93332 171.9C403.2765 171.9 401.93332 170.55685 401.93332 168.9C401.93332 167.24315 403.2765 165.9 404.93332 165.9C406.59018 165.9 407.93332 167.24315 407.93332 168.9Z" fill-rule="nonzero"/><path fill="#000000" fill-opacity="0.0" clip-path="url(#id_0)" d="M440.24545 174.34C440.24545 175.99686 438.9023 177.34 437.24545 177.34C435.5886 177.34 434.24545 175.99686 434.24545 174.34C434.24545 172.68315 435.5886 171.34 437.24545 171.34C438.9023 171.34 440.24545 172.68315 440.24545 174.34Z" fill-rule="nonzero"/><path fill="#000000" fill-opacity="0.0" clip-path="url(#id_0)" d="M472.5576 140.9C472.5576 142.55685 471.21442 143.9 469.5576 143.9C467.90073 143.9 466.5576 142.55685 466.5576 140.9C466.5576 139.24315 467.90073 137.9 469.5576 137.9C471.21442 137.9 472.5576 139.24315 472.5576 140.9Z" fill-rule="nonzero"/><path fill="#000000" fill-opacity="0.0" clip-path="url(#id_0)" d="M504.8697 181.62C504.8697 183.27686 503.52655 184.62 501.8697 184.62C500.21283 184.62 498.8697 183.27686 498.8697 181.62C498.8697 179.96315 500.21283 178.62 501.8697 178.62C503.52655 178.62 504.8697 179.96315 504.8697 181.62Z" fill-rule="nonzero"/><path fill="#000000" fill-opacity="0.0" clip-path="url(#id_0)" d="M537.1818 168.18C537.1818 169.83685 535.8387 171.18 534.1818 171.18C532.52496 171.18 531.1818 169.83685 531.1818 168.18C531.1818 166.52315 532.52496 165.18 534.1818 165.18C535.8387 165.18 537.1818 166.52315 537.1818 168.18Z" fill-rule="nonzero"/><path fill="#000000" fill-opacity="0.0" clip-path="url(#id_0)" d="M569.49396 169.54C569.49396 171.19685 568.1508 172.54 566.49396 172.54C564.8371 172.54 563.49396 171.19685 563.49396 169.54C563.49396 167.88315 564.8371 166.54 566.49396 166.54C568.1508 166.54 569.49396 167.88315 569.49396 169.54Z" fill-rule="nonzero"/><path fill="#000000" fill-opacity="0.0" clip-path="url(#id_0)" d="M585.65 172.9C585.65 174.55685 584.3069 175.9 582.65 175.9C580.99316 175.9 579.65 174.55685 579.65 172.9C579.65 171.24315 580.99316 169.9 582.65 169.9C584.3069 169.9 585.65 171.24315 585.65 172.9Z" fill-rule="nonzero"/><path fill="#000000" d="M297.1844 342.73065L297.1844 332.71503L304.4344 332.71503L304.4344 333.8869L298.5125 333.8869L298.5125 336.96503L304.0594 336.96503L304.0594 338.1369L298.5125 338.1369L298.5125 341.54315L304.66876 341.54315L304.66876 342.73065L297.1844 342.73065ZM305.9969 345.5119L305.9969 335.46503L307.1219 335.46503L307.1219 336.41815Q307.5125 335.85565 308.0125 335.59003Q308.5125 335.30878 309.23126 335.30878Q310.15314 335.30878 310.85626 335.79315Q311.575 336.2619 311.9344 337.1369Q312.29376 338.0119 312.29376 339.04315Q312.29376 340.15253 311.8875 341.05878Q311.4969 341.9494 310.73126 342.43378Q309.98126 342.90253 309.1375 342.90253Q308.52814 342.90253 308.02814 342.6369Q307.54376 342.37128 307.23126 341.98065L307.23126 345.5119L305.9969 345.5119ZM307.10626 339.1369Q307.10626 340.54315 307.66876 341.21503Q308.2469 341.8869 309.0594 341.8869Q309.8719 341.8869 310.45 341.1994Q311.04376 340.49628 311.04376 339.04315Q311.04376 337.65253 310.46564 336.96503Q309.90314 336.27753 309.10626 336.27753Q308.325 336.27753 307.71564 337.0119Q307.10626 337.74628 307.10626 339.1369ZM313.54376 339.10565Q313.54376 337.09003 314.66876 336.10565Q315.59064 335.30878 316.95 335.30878Q318.4344 335.30878 319.3875 336.29315Q320.34064 337.2619 320.34064 338.99628Q320.34064 340.40253 319.91876 341.21503Q319.4969 342.0119 318.6844 342.46503Q317.8875 342.90253 316.95 342.90253Q315.41876 342.90253 314.48126 341.91815Q313.54376 340.93378 313.54376 339.10565ZM314.8094 339.10565Q314.8094 340.49628 315.41876 341.1994Q316.02814 341.8869 316.95 341.8869Q317.85626 341.8869 318.46564 341.18378Q319.075 340.48065 319.075 339.05878Q319.075 337.71503 318.46564 337.02753Q317.85626 336.3244 316.95 336.3244Q316.02814 336.3244 315.41876 337.0119Q314.8094 337.6994 314.8094 339.10565ZM326.73126 340.0744L327.95 340.23065Q327.7469 341.48065 326.91876 342.1994Q326.10626 342.90253 324.91876 342.90253Q323.4344 342.90253 322.52814 341.93378Q321.6219 340.9494 321.6219 339.12128Q321.6219 337.9494 322.0125 337.0744Q322.40314 336.18378 323.2 335.74628Q323.9969 335.30878 324.9344 335.30878Q326.10626 335.30878 326.85626 335.90253Q327.6219 336.49628 327.825 337.60565L326.6375 337.79315Q326.46564 337.05878 326.02814 336.6994Q325.59064 336.3244 324.98126 336.3244Q324.04376 336.3244 323.46564 336.99628Q322.8875 337.65253 322.8875 339.09003Q322.8875 340.55878 323.45 341.23065Q324.0125 341.8869 324.90314 341.8869Q325.6375 341.8869 326.1219 341.4494Q326.60626 340.99628 326.73126 340.0744ZM328.9969 342.73065L328.9969 332.71503L330.23126 332.71503L330.23126 336.30878Q331.09064 335.30878 332.40314 335.30878Q333.21564 335.30878 333.8094 335.6369Q334.40314 335.9494 334.65314 336.5119Q334.91876 337.05878 334.91876 338.1369L334.91876 342.73065L333.6844 342.73065L333.6844 338.1369Q333.6844 337.1994 333.27814 336.79315Q332.8875 336.37128 332.15314 336.37128Q331.60626 336.37128 331.1219 336.65253Q330.6375 336.93378 330.4344 337.41815Q330.23126 337.90253 330.23126 338.7619L330.23126 342.73065L328.9969 342.73065Z" fill-rule="nonzero"/><path fill="#000000" d="M24.83199 261.89862L13.378865 261.89862L13.378865 260.383L18.08199 260.383L18.08199 254.42989L13.378865 254.42989L13.378865 252.91426L24.83199 252.91426L24.83199 254.42989L19.42574 254.42989L19.42574 260.383L24.83199 260.383L24.83199 261.89862ZM24.83199 250.99239L13.378865 250.99239L13.378865 248.71114L21.48824 245.99239Q22.61324 245.61739 23.17574 245.44551Q22.55074 245.25801 21.347614 244.83614L13.378865 242.10176L13.378865 240.05489L24.83199 240.05489L24.83199 241.52364L15.23824 241.52364L24.83199 244.85176L24.83199 246.21114L15.08199 249.52364L24.83199 249.52364L24.83199 250.99239ZM24.83199 237.94551L13.378865 237.94551L13.378865 233.99239Q13.378865 232.66426 13.535115 231.96114Q13.76949 230.97676 14.36324 230.27364Q15.128865 229.36739 16.316364 228.92989Q17.503864 228.47676 19.035114 228.47676Q20.347614 228.47676 21.36324 228.78926Q22.36324 229.08614 23.01949 229.57051Q23.67574 230.03926 24.066364 230.60176Q24.441364 231.16426 24.64449 231.97676Q24.83199 232.77364 24.83199 233.80489L24.83199 237.94551ZM23.472614 236.42989L23.472614 233.97676Q23.472614 232.85176 23.26949 232.21114Q23.05074 231.55489 22.67574 231.17989Q22.128864 230.63301 21.222614 230.33614Q20.316364 230.03926 19.01949 230.03926Q17.222614 230.03926 16.253864 230.63301Q15.285115 231.21114 14.95699 232.05489Q14.722615 232.66426 14.722615 234.02364L14.722615 236.42989L23.472614 236.42989ZM24.83199 226.00801L13.378865 226.00801L13.378865 221.71114Q13.378865 220.39864 13.722615 219.60176Q14.066365 218.80489 14.80074 218.36739Q15.51949 217.91426 16.30074 217.91426Q17.035114 217.91426 17.691364 218.32051Q18.33199 218.71114 18.73824 219.50801Q19.035114 218.47676 19.76949 217.91426Q20.503864 217.35176 21.503864 217.35176Q22.316364 217.35176 23.003864 217.69551Q23.691364 218.03926 24.066364 218.53926Q24.441364 219.03926 24.64449 219.78926Q24.83199 220.53926 24.83199 221.63301L24.83199 226.00801ZM18.191364 224.49239L18.191364 222.00801Q18.191364 221.00801 18.05074 220.57051Q17.878864 219.99239 17.48824 219.69551Q17.08199 219.39864 16.48824 219.39864Q15.910115 219.39864 15.48824 219.67989Q15.05074 219.94551 14.89449 220.46114Q14.722615 220.96114 14.722615 222.19551L14.722615 224.49239L18.191364 224.49239ZM23.472614 224.49239L23.472614 221.63301Q23.472614 220.89864 23.42574 220.60176Q23.33199 220.08614 23.11324 219.74239Q22.89449 219.38301 22.472614 219.16426Q22.05074 218.92989 21.503864 218.92989Q20.86324 218.92989 20.39449 219.25801Q19.92574 219.58614 19.73824 220.16426Q19.535114 220.74239 19.535114 221.83614L19.535114 224.49239L23.472614 224.49239ZM21.83199 215.50801L21.70699 214.03926Q22.785114 213.86739 23.33199 213.27364Q23.86324 212.67989 23.86324 211.83614Q23.86324 210.82051 23.097614 210.11739Q22.33199 209.41426 21.066364 209.41426Q19.86324 209.41426 19.17574 210.08614Q18.472614 210.75801 18.472614 211.85176Q18.472614 212.53926 18.785114 213.08614Q19.097614 213.63301 19.58199 213.94551L19.410114 215.25801L13.535115 214.14864L13.535115 208.46114L14.878865 208.46114L14.878865 213.02364L17.95699 213.64864Q17.23824 212.61739 17.23824 211.47676Q17.23824 209.97676 18.285114 208.94551Q19.316364 207.91426 20.941364 207.91426Q22.503864 207.91426 23.628864 208.82051Q25.035114 209.92989 25.035114 211.83614Q25.035114 213.39864 24.160114 214.38301Q23.26949 215.36739 21.83199 215.50801ZM24.83199 201.21114L24.83199 202.61739L15.86324 202.61739Q16.347614 203.13301 16.83199 203.96114Q17.316364 204.77364 17.566364 205.42989L16.20699 205.42989Q15.64449 204.25801 14.86324 203.38301Q14.066365 202.49239 13.33199 202.11739L13.33199 201.21114L24.83199 201.21114ZM20.816364 184.77362L21.191364 183.258Q23.066364 183.72675 24.05074 184.97675Q25.035114 186.21112 25.035114 187.99237Q25.035114 189.85175 24.285114 191.008Q23.51949 192.16425 22.097614 192.77362Q20.660114 193.383 19.01949 193.383Q17.222614 193.383 15.89449 192.6955Q14.566365 192.008 13.878865 190.758Q13.17574 189.49237 13.17574 187.97675Q13.17574 186.258 14.05074 185.08612Q14.92574 183.91425 16.51949 183.4455L16.86324 184.9455Q15.61324 185.33612 15.05074 186.10175Q14.472615 186.85175 14.472615 188.008Q14.472615 189.3205 15.11324 190.21112Q15.73824 191.10175 16.816364 191.46112Q17.878864 191.8205 19.003864 191.8205Q20.472614 191.8205 21.566364 191.39862Q22.64449 190.96112 23.191364 190.0705Q23.722614 189.16425 23.722614 188.11737Q23.722614 186.85175 22.98824 185.97675Q22.253864 185.08612 20.816364 184.77362ZM20.67574 181.64862Q18.378864 181.64862 17.26949 180.36737Q16.347614 179.28925 16.347614 177.758Q16.347614 176.03925 17.472614 174.96112Q18.58199 173.86737 20.566364 173.86737Q22.160114 173.86737 23.08199 174.35175Q24.003864 174.83612 24.51949 175.758Q25.01949 176.66425 25.01949 177.758Q25.01949 179.49237 23.910114 180.5705Q22.785114 181.64862 20.67574 181.64862ZM20.67574 180.1955Q22.26949 180.1955 23.066364 179.508Q23.86324 178.80487 23.86324 177.758Q23.86324 176.71112 23.066364 176.02362Q22.26949 175.3205 20.628864 175.3205Q19.097614 175.3205 18.30074 176.02362Q17.503864 176.71112 17.503864 177.758Q17.503864 178.80487 18.30074 179.508Q19.08199 180.1955 20.67574 180.1955ZM24.83199 172.11737L16.535114 172.11737L16.535114 170.85175L17.70699 170.85175Q16.347614 169.9455 16.347614 168.21112Q16.347614 167.46112 16.61324 166.83612Q16.878864 166.21112 17.316364 165.89862Q17.753864 165.58612 18.36324 165.46112Q18.753864 165.383 19.722614 165.383L24.83199 165.383L24.83199 166.78925L19.785114 166.78925Q18.92574 166.78925 18.503864 166.96112Q18.066364 167.11737 17.816364 167.53925Q17.566364 167.9455 17.566364 168.508Q17.566364 169.41425 18.14449 170.0705Q18.70699 170.71112 20.30074 170.71112L24.83199 170.71112L24.83199 172.11737ZM23.566364 161.05487L24.816364 160.85175Q24.941364 161.4455 24.941364 161.91425Q24.941364 162.67987 24.70699 163.10175Q24.45699 163.52362 24.066364 163.6955Q23.660114 163.86737 22.39449 163.86737L17.628864 163.86737L17.628864 164.89862L16.535114 164.89862L16.535114 163.86737L14.472615 163.86737L13.628865 162.46112L16.535114 162.46112L16.535114 161.05487L17.628864 161.05487L17.628864 162.46112L22.472614 162.46112Q23.08199 162.46112 23.253864 162.39862Q23.42574 162.3205 23.535114 162.14862Q23.628864 161.97675 23.628864 161.66425Q23.628864 161.42987 23.566364 161.05487ZM24.83199 160.133L16.535114 160.133L16.535114 158.86737L17.785114 158.86737Q16.910114 158.383 16.628864 157.97675Q16.347614 157.5705 16.347614 157.0705Q16.347614 156.36737 16.80074 155.633L18.097614 156.11737Q17.80074 156.633 17.80074 157.14862Q17.80074 157.60175 18.08199 157.97675Q18.347614 158.33612 18.847614 158.49237Q19.597614 158.72675 20.48824 158.72675L24.83199 158.72675L24.83199 160.133ZM23.80074 149.71112Q24.472614 150.49237 24.753864 151.21112Q25.01949 151.92987 25.01949 152.758Q25.01949 154.133 24.347614 154.86737Q23.67574 155.60175 22.64449 155.60175Q22.035114 155.60175 21.535114 155.3205Q21.01949 155.03925 20.722614 154.60175Q20.410114 154.14862 20.253864 153.58612Q20.14449 153.16425 20.05074 152.33612Q19.847614 150.633 19.566364 149.8205Q19.26949 149.8205 19.191364 149.8205Q18.33199 149.8205 17.98824 150.21112Q17.503864 150.758 17.503864 151.8205Q17.503864 152.80487 17.86324 153.28925Q18.20699 153.758 19.08199 153.97675L18.89449 155.35175Q18.01949 155.16425 17.472614 154.74237Q16.92574 154.30487 16.64449 153.49237Q16.347614 152.67987 16.347614 151.61737Q16.347614 150.55487 16.597614 149.89862Q16.847614 149.22675 17.222614 148.91425Q17.597614 148.60175 18.17574 148.47675Q18.535114 148.39862 19.472614 148.39862L21.347614 148.39862Q23.316364 148.39862 23.83199 148.3205Q24.347614 148.22675 24.83199 147.96112L24.83199 149.42987Q24.39449 149.64862 23.80074 149.71112ZM20.660114 149.8205Q20.972614 150.58612 21.191364 152.11737Q21.316364 152.99237 21.472614 153.35175Q21.628864 153.71112 21.941364 153.91425Q22.23824 154.10175 22.597614 154.10175Q23.160114 154.10175 23.535114 153.67987Q23.910114 153.24237 23.910114 152.42987Q23.910114 151.61737 23.566364 150.99237Q23.20699 150.35175 22.58199 150.05487Q22.11324 149.8205 21.17574 149.8205L20.660114 149.8205ZM24.83199 145.72675L23.222614 145.72675L23.222614 144.11737L24.83199 144.11737L24.83199 145.72675ZM24.83199 139.21112L13.378865 134.80487L13.378865 133.16425L24.83199 128.47675L24.83199 130.21112L21.36324 131.53925L21.36324 136.33612L24.83199 137.58612L24.83199 139.21112ZM20.128864 135.89862L20.128864 132.008L16.95699 133.21112Q15.503865 133.758 14.58199 134.02362Q15.67574 134.24237 16.76949 134.633L20.128864 135.89862ZM21.785114 121.71113L21.972614 120.3205Q23.39449 120.55488 24.20699 121.49238Q25.01949 122.41425 25.01949 123.77363Q25.01949 125.47675 23.910114 126.52363Q22.785114 127.55488 20.70699 127.55488Q19.36324 127.55488 18.36324 127.11738Q17.347614 126.66425 16.847614 125.758Q16.347614 124.83613 16.347614 123.77363Q16.347614 122.41425 17.035114 121.55488Q17.70699 120.6955 18.972614 120.46113L19.17574 121.8205Q18.347614 122.02363 17.92574 122.52363Q17.503864 123.008 17.503864 123.71113Q17.503864 124.77363 18.26949 125.4455Q19.01949 126.10175 20.67574 126.10175Q22.347614 126.10175 23.11324 125.46113Q23.86324 124.8205 23.86324 123.78925Q23.86324 122.96113 23.36324 122.41425Q22.847614 121.85175 21.785114 121.71113ZM21.785114 113.71113L21.972614 112.3205Q23.39449 112.55488 24.20699 113.49238Q25.01949 114.41425 25.01949 115.77363Q25.01949 117.47675 23.910114 118.52363Q22.785114 119.55488 20.70699 119.55488Q19.36324 119.55488 18.36324 119.11738Q17.347614 118.66425 16.847614 117.758Q16.347614 116.83613 16.347614 115.77363Q16.347614 114.41425 17.035114 113.55488Q17.70699 112.6955 18.972614 112.46113L19.17574 113.8205Q18.347614 114.02363 17.92574 114.52363Q17.503864 115.008 17.503864 115.71113Q17.503864 116.77363 18.26949 117.4455Q19.01949 118.10175 20.67574 118.10175Q22.347614 118.10175 23.11324 117.46113Q23.86324 116.8205 23.86324 115.78925Q23.86324 114.96113 23.36324 114.41425Q22.847614 113.85175 21.785114 113.71113ZM24.83199 110.72675L23.222614 110.72675L23.222614 109.11738L24.83199 109.11738L24.83199 110.72675ZM28.20699 100.42988Q26.73824 101.60175 24.76949 102.41425Q22.785114 103.21113 20.67574 103.21113Q18.816364 103.21113 17.11324 102.60175Q15.14449 101.89863 13.17574 100.42988L13.17574 99.42988Q14.80074 100.36738 15.503865 100.67988Q16.58199 101.14863 17.753864 101.42988Q19.20699 101.758 20.691364 101.758Q24.441364 101.758 28.20699 99.42988L28.20699 100.42988ZM16.128864 98.24238Q14.89449 98.24238 14.035115 97.633Q13.17574 97.008 13.17574 95.83613Q13.17574 94.758 13.95699 94.05488Q14.722615 93.35175 16.20699 93.35175Q17.660114 93.35175 18.45699 94.0705Q19.23824 94.77363 19.23824 95.8205Q19.23824 96.86738 18.472614 97.55488Q17.691364 98.24238 16.128864 98.24238ZM14.14449 95.80488Q14.14449 96.3205 14.597615 96.67988Q15.05074 97.02363 16.26949 97.02363Q17.36324 97.02363 17.816364 96.67988Q18.26949 96.3205 18.26949 95.80488Q18.26949 95.27363 17.816364 94.92988Q17.36324 94.5705 16.160114 94.5705Q15.05074 94.5705 14.597615 94.92988Q14.14449 95.27363 14.14449 95.80488ZM25.253864 95.78925L13.17574 89.52363L13.17574 88.383L25.253864 94.633L25.253864 95.78925ZM22.14449 90.83613Q20.910114 90.83613 20.05074 90.22675Q19.191364 89.60175 19.191364 88.42988Q19.191364 87.35175 19.972614 86.64863Q20.73824 85.92988 22.222614 85.92988Q23.67574 85.92988 24.472614 86.64863Q25.253864 87.36738 25.253864 88.41425Q25.253864 89.46113 24.472614 90.14863Q23.691364 90.83613 22.14449 90.83613ZM20.160114 88.383Q20.160114 88.91425 20.61324 89.27363Q21.066364 89.61738 22.285114 89.61738Q23.378864 89.61738 23.83199 89.27363Q24.285114 88.91425 24.285114 88.39863Q24.285114 87.85175 23.83199 87.508Q23.378864 87.16425 22.17574 87.16425Q21.066364 87.16425 20.61324 87.52363Q20.160114 87.86738 20.160114 88.383ZM28.20699 83.1955L28.20699 84.21113Q24.441364 81.86738 20.691364 81.86738Q19.222614 81.86738 17.76949 82.21113Q16.597614 82.47675 15.51949 82.9455Q14.816365 83.258 13.17574 84.21113L13.17574 83.1955Q15.14449 81.72675 17.11324 81.02363Q18.816364 80.42988 20.67574 80.42988Q22.785114 80.42988 24.76949 81.24238Q26.73824 82.03925 28.20699 83.1955Z" fill-rule="nonzero"/><path fill="#000000" d="M35.546875 311.48438L35.546875 312.5L29.859375 312.5Q29.859375 312.125 29.984375 311.76562Q30.203125 311.1875 30.671875 310.625Q31.15625 310.0625 32.0625 309.32812Q33.46875 308.17188 33.953125 307.5Q34.453125 306.82812 34.453125 306.23438Q34.453125 305.60938 34.0 305.1875Q33.546875 304.75 32.828125 304.75Q32.0625 304.75 31.609375 305.20312Q31.15625 305.65625 31.140625 306.46875L30.0625 306.35938Q30.171875 305.14062 30.890625 304.51562Q31.625 303.875 32.859375 303.875Q34.09375 303.875 34.8125 304.5625Q35.53125 305.25 35.53125 306.26562Q35.53125 306.78125 35.3125 307.28125Q35.109375 307.76562 34.609375 308.32812Q34.125 308.875 33.0 309.82812Q32.046875 310.625 31.765625 310.92188Q31.5 311.20312 31.328125 311.48438L35.546875 311.48438ZM37.0 308.26562Q37.0 306.73438 37.3125 305.8125Q37.625 304.875 38.234375 304.375Q38.859375 303.875 39.796875 303.875Q40.484375 303.875 41.0 304.15625Q41.53125 304.4375 41.875 304.96875Q42.21875 305.48438 42.40625 306.23438Q42.59375 306.98438 42.59375 308.26562Q42.59375 309.78125 42.28125 310.70312Q41.984375 311.625 41.359375 312.14062Q40.75 312.64062 39.796875 312.64062Q38.5625 312.64062 37.84375 311.75Q37.0 310.6875 37.0 308.26562ZM38.078125 308.26562Q38.078125 310.375 38.578125 311.07812Q39.078125 311.78125 39.796875 311.78125Q40.53125 311.78125 41.015625 311.07812Q41.515625 310.375 41.515625 308.26562Q41.515625 306.14062 41.015625 305.45312Q40.53125 304.75 39.78125 304.75Q39.0625 304.75 38.625 305.35938Q38.078125 306.14062 38.078125 308.26562Z" fill-rule="nonzero"/><path fill="#000000" d="M35.546875 271.48438L35.546875 272.5L29.859375 272.5Q29.859375 272.125 29.984375 271.76562Q30.203125 271.1875 30.671875 270.625Q31.15625 270.0625 32.0625 269.32812Q33.46875 268.17188 33.953125 267.5Q34.453125 266.82812 34.453125 266.23438Q34.453125 265.60938 34.0 265.1875Q33.546875 264.75 32.828125 264.75Q32.0625 264.75 31.609375 265.20312Q31.15625 265.65625 31.140625 266.46875L30.0625 266.35938Q30.171875 265.14062 30.890625 264.51562Q31.625 263.875 32.859375 263.875Q34.09375 263.875 34.8125 264.5625Q35.53125 265.25 35.53125 266.26562Q35.53125 266.78125 35.3125 267.28125Q35.109375 267.76562 34.609375 268.32812Q34.125 268.875 33.0 269.82812Q32.046875 270.625 31.765625 270.92188Q31.5 271.20312 31.328125 271.48438L35.546875 271.48438ZM37.0 270.25L38.109375 270.15625Q38.234375 270.96875 38.671875 271.375Q39.125 271.78125 39.765625 271.78125Q40.515625 271.78125 41.046875 271.20312Q41.578125 270.625 41.578125 269.6875Q41.578125 268.78125 41.0625 268.26562Q40.5625 267.73438 39.734375 267.73438Q39.234375 267.73438 38.8125 267.96875Q38.40625 268.20312 38.171875 268.5625L37.1875 268.4375L38.015625 264.03125L42.296875 264.03125L42.296875 265.03125L38.859375 265.03125L38.40625 267.34375Q39.171875 266.79688 40.015625 266.79688Q41.140625 266.79688 41.90625 267.57812Q42.6875 268.35938 42.6875 269.59375Q42.6875 270.75 42.015625 271.60938Q41.1875 272.64062 39.765625 272.64062Q38.59375 272.64062 37.84375 271.98438Q37.109375 271.32812 37.0 270.25Z" fill-rule="nonzero"/><path fill="#000000" d="M30.0 230.23438L31.0625 230.09375Q31.234375 230.98438 31.671875 231.39062Q32.109375 231.78125 32.734375 231.78125Q33.484375 231.78125 34.0 231.26562Q34.515625 230.75 34.515625 229.98438Q34.515625 229.26562 34.03125 228.79688Q33.5625 228.3125 32.828125 228.3125Q32.53125 228.3125 32.078125 228.4375L32.203125 227.5Q32.3125 227.51562 32.375 227.51562Q33.046875 227.51562 33.578125 227.17188Q34.125 226.8125 34.125 226.07812Q34.125 225.5 33.734375 225.125Q33.34375 224.73438 32.71875 224.73438Q32.109375 224.73438 31.6875 225.125Q31.28125 225.51562 31.171875 226.28125L30.109375 226.09375Q30.296875 225.04688 30.984375 224.46875Q31.671875 223.875 32.6875 223.875Q33.390625 223.875 33.984375 224.1875Q34.578125 224.48438 34.890625 225.0Q35.203125 225.51562 35.203125 226.10938Q35.203125 226.65625 34.90625 227.125Q34.609375 227.57812 34.03125 227.84375Q34.78125 228.01562 35.203125 228.57812Q35.625 229.125 35.625 229.96875Q35.625 231.09375 34.796875 231.875Q33.984375 232.65625 32.734375 232.65625Q31.609375 232.65625 30.859375 231.98438Q30.109375 231.29688 30.0 230.23438ZM37.0 228.26562Q37.0 226.73438 37.3125 225.8125Q37.625 224.875 38.234375 224.375Q38.859375 223.875 39.796875 223.875Q40.484375 223.875 41.0 224.15625Q41.53125 224.4375 41.875 224.96875Q42.21875 225.48438 42.40625 226.23438Q42.59375 226.98438 42.59375 228.26562Q42.59375 229.78125 42.28125 230.70312Q41.984375 231.625 41.359375 232.14062Q40.75 232.64062 39.796875 232.64062Q38.5625 232.64062 37.84375 231.75Q37.0 230.6875 37.0 228.26562ZM38.078125 228.26562Q38.078125 230.375 38.578125 231.07812Q39.078125 231.78125 39.796875 231.78125Q40.53125 231.78125 41.015625 231.07812Q41.515625 230.375 41.515625 228.26562Q41.515625 226.14062 41.015625 225.45312Q40.53125 224.75 39.78125 224.75Q39.0625 224.75 38.625 225.35938Q38.078125 226.14062 38.078125 228.26562Z" fill-rule="nonzero"/><path fill="#000000" d="M30.0 190.23438L31.0625 190.09375Q31.234375 190.98438 31.671875 191.39062Q32.109375 191.78125 32.734375 191.78125Q33.484375 191.78125 34.0 191.26562Q34.515625 190.75 34.515625 189.98438Q34.515625 189.26562 34.03125 188.79688Q33.5625 188.3125 32.828125 188.3125Q32.53125 188.3125 32.078125 188.4375L32.203125 187.5Q32.3125 187.51562 32.375 187.51562Q33.046875 187.51562 33.578125 187.17188Q34.125 186.8125 34.125 186.07812Q34.125 185.5 33.734375 185.125Q33.34375 184.73438 32.71875 184.73438Q32.109375 184.73438 31.6875 185.125Q31.28125 185.51562 31.171875 186.28125L30.109375 186.09375Q30.296875 185.04688 30.984375 184.46875Q31.671875 183.875 32.6875 183.875Q33.390625 183.875 33.984375 184.1875Q34.578125 184.48438 34.890625 185.0Q35.203125 185.51562 35.203125 186.10938Q35.203125 186.65625 34.90625 187.125Q34.609375 187.57812 34.03125 187.84375Q34.78125 188.01562 35.203125 188.57812Q35.625 189.125 35.625 189.96875Q35.625 191.09375 34.796875 191.875Q33.984375 192.65625 32.734375 192.65625Q31.609375 192.65625 30.859375 191.98438Q30.109375 191.29688 30.0 190.23438ZM37.0 190.25L38.109375 190.15625Q38.234375 190.96875 38.671875 191.375Q39.125 191.78125 39.765625 191.78125Q40.515625 191.78125 41.046875 191.20312Q41.578125 190.625 41.578125 189.6875Q41.578125 188.78125 41.0625 188.26562Q40.5625 187.73438 39.734375 187.73438Q39.234375 187.73438 38.8125 187.96875Q38.40625 188.20312 38.171875 188.5625L37.1875 188.4375L38.015625 184.03125L42.296875 184.03125L42.296875 185.03125L38.859375 185.03125L38.40625 187.34375Q39.171875 186.79688 40.015625 186.79688Q41.140625 186.79688 41.90625 187.57812Q42.6875 188.35938 42.6875 189.59375Q42.6875 190.75 42.015625 191.60938Q41.1875 192.64062 39.765625 192.64062Q38.59375 192.64062 37.84375 191.98438Q37.109375 191.32812 37.0 190.25Z" fill-rule="nonzero"/><path fill="#000000" d="M33.375 152.5L33.375 150.4375L29.65625 150.4375L29.65625 149.46875L33.578125 143.90625L34.4375 143.90625L34.4375 149.46875L35.59375 149.46875L35.59375 150.4375L34.4375 150.4375L34.4375 152.5L33.375 152.5ZM33.375 149.46875L33.375 145.60938L30.6875 149.46875L33.375 149.46875ZM37.0 148.26562Q37.0 146.73438 37.3125 145.8125Q37.625 144.875 38.234375 144.375Q38.859375 143.875 39.796875 143.875Q40.484375 143.875 41.0 144.15625Q41.53125 144.4375 41.875 144.96875Q42.21875 145.48438 42.40625 146.23438Q42.59375 146.98438 42.59375 148.26562Q42.59375 149.78125 42.28125 150.70312Q41.984375 151.625 41.359375 152.14062Q40.75 152.64062 39.796875 152.64062Q38.5625 152.64062 37.84375 151.75Q37.0 150.6875 37.0 148.26562ZM38.078125 148.26562Q38.078125 150.375 38.578125 151.07812Q39.078125 151.78125 39.796875 151.78125Q40.53125 151.78125 41.015625 151.07812Q41.515625 150.375 41.515625 148.26562Q41.515625 146.14062 41.015625 145.45312Q40.53125 144.75 39.78125 144.75Q39.0625 144.75 38.625 145.35938Q38.078125 146.14062 38.078125 148.26562Z" fill-rule="nonzero"/><path fill="#000000" d="M33.375 112.5L33.375 110.4375L29.65625 110.4375L29.65625 109.46875L33.578125 103.90625L34.4375 103.90625L34.4375 109.46875L35.59375 109.46875L35.59375 110.4375L34.4375 110.4375L34.4375 112.5L33.375 112.5ZM33.375 109.46875L33.375 105.609375L30.6875 109.46875L33.375 109.46875ZM37.0 110.25L38.109375 110.15625Q38.234375 110.96875 38.671875 111.375Q39.125 111.78125 39.765625 111.78125Q40.515625 111.78125 41.046875 111.203125Q41.578125 110.625 41.578125 109.6875Q41.578125 108.78125 41.0625 108.265625Q40.5625 107.734375 39.734375 107.734375Q39.234375 107.734375 38.8125 107.96875Q38.40625 108.203125 38.171875 108.5625L37.1875 108.4375L38.015625 104.03125L42.296875 104.03125L42.296875 105.03125L38.859375 105.03125L38.40625 107.34375Q39.171875 106.796875 40.015625 106.796875Q41.140625 106.796875 41.90625 107.578125Q42.6875 108.359375 42.6875 109.59375Q42.6875 110.75 42.015625 111.609375Q41.1875 112.640625 39.765625 112.640625Q38.59375 112.640625 37.84375 111.984375Q37.109375 111.328125 37.0 110.25Z" fill-rule="nonzero"/><path fill="#000000" d="M30.0 70.25L31.109375 70.15625Q31.234375 70.96875 31.671875 71.375Q32.125 71.78125 32.765625 71.78125Q33.515625 71.78125 34.046875 71.203125Q34.578125 70.625 34.578125 69.6875Q34.578125 68.78125 34.0625 68.265625Q33.5625 67.734375 32.734375 67.734375Q32.234375 67.734375 31.8125 67.96875Q31.40625 68.203125 31.171875 68.5625L30.1875 68.4375L31.015625 64.03125L35.296875 64.03125L35.296875 65.03125L31.859375 65.03125L31.40625 67.34375Q32.171875 66.796875 33.015625 66.796875Q34.140625 66.796875 34.90625 67.578125Q35.6875 68.359375 35.6875 69.59375Q35.6875 70.75 35.015625 71.609375Q34.1875 72.640625 32.765625 72.640625Q31.59375 72.640625 30.84375 71.984375Q30.109375 71.328125 30.0 70.25ZM37.0 68.265625Q37.0 66.734375 37.3125 65.8125Q37.625 64.875 38.234375 64.375Q38.859375 63.875 39.796875 63.875Q40.484375 63.875 41.0 64.15625Q41.53125 64.4375 41.875 64.96875Q42.21875 65.484375 42.40625 66.234375Q42.59375 66.984375 42.59375 68.265625Q42.59375 69.78125 42.28125 70.703125Q41.984375 71.625 41.359375 72.140625Q40.75 72.640625 39.796875 72.640625Q38.5625 72.640625 37.84375 71.75Q37.0 70.6875 37.0 68.265625ZM38.078125 68.265625Q38.078125 70.375 38.578125 71.078125Q39.078125 71.78125 39.796875 71.78125Q40.53125 71.78125 41.015625 71.078125Q41.515625 70.375 41.515625 68.265625Q41.515625 66.140625 41.015625 65.453125Q40.53125 64.75 39.78125 64.75Q39.0625 64.75 38.625 65.359375Q38.078125 66.140625 38.078125 68.265625Z" fill-rule="nonzero"/><path fill="#000000" d="M30.0 30.25L31.109375 30.15625Q31.234375 30.96875 31.671875 31.375Q32.125 31.78125 32.765625 31.78125Q33.515625 31.78125 34.046875 31.203125Q34.578125 30.625 34.578125 29.6875Q34.578125 28.78125 34.0625 28.265625Q33.5625 27.734375 32.734375 27.734375Q32.234375 27.734375 31.8125 27.96875Q31.40625 28.203125 31.171875 28.5625L30.1875 28.4375L31.015625 24.03125L35.296875 24.03125L35.296875 25.03125L31.859375 25.03125L31.40625 27.34375Q32.171875 26.796875 33.015625 26.796875Q34.140625 26.796875 34.90625 27.578125Q35.6875 28.359375 35.6875 29.59375Q35.6875 30.75 35.015625 31.609375Q34.1875 32.640625 32.765625 32.640625Q31.59375 32.640625 30.84375 31.984375Q30.109375 31.328125 30.0 30.25ZM37.0 30.25L38.109375 30.15625Q38.234375 30.96875 38.671875 31.375Q39.125 31.78125 39.765625 31.78125Q40.515625 31.78125 41.046875 31.203125Q41.578125 30.625 41.578125 29.6875Q41.578125 28.78125 41.0625 28.265625Q40.5625 27.734375 39.734375 27.734375Q39.234375 27.734375 38.8125 27.96875Q38.40625 28.203125 38.171875 28.5625L37.1875 28.4375L38.015625 24.03125L42.296875 24.03125L42.296875 25.03125L38.859375 25.03125L38.40625 27.34375Q39.171875 26.796875 40.015625 26.796875Q41.140625 26.796875 41.90625 27.578125Q42.6875 28.359375 42.6875 29.59375Q42.6875 30.75 42.015625 31.609375Q41.1875 32.640625 39.765625 32.640625Q38.59375 32.640625 37.84375 31.984375Q37.109375 31.328125 37.0 30.25Z" fill-rule="nonzero"/><path fill="#000000" d="M94.968185 323.25L96.07756 323.15625Q96.20256 323.96875 96.64006 324.375Q97.093185 324.78125 97.73381 324.78125Q98.48381 324.78125 99.01506 324.20312Q99.54631 323.625 99.54631 322.6875Q99.54631 321.78125 99.030685 321.26562Q98.530685 320.73438 97.70256 320.73438Q97.20256 320.73438 96.780685 320.96875Q96.374435 321.20312 96.14006 321.5625L95.155685 321.4375L95.98381 317.03125L100.26506 317.03125L100.26506 318.03125L96.82756 318.03125L96.374435 320.34375Q97.14006 319.79688 97.98381 319.79688Q99.10881 319.79688 99.874435 320.57812Q100.655685 321.35938 100.655685 322.59375Q100.655685 323.75 99.98381 324.60938Q99.155685 325.64062 97.73381 325.64062Q96.561935 325.64062 95.811935 324.98438Q95.07756 324.32812 94.968185 323.25Z" fill-rule="nonzero"/><path fill="#000000" d="M176.21724 325.5L175.17036 325.5L175.17036 318.78125Q174.77974 319.14062 174.15474 319.51562Q173.54536 319.875 173.06099 320.04688L173.06099 319.03125Q173.93599 318.60938 174.59224 318.03125Q175.26411 317.4375 175.54536 316.875L176.21724 316.875L176.21724 325.5ZM179.24849 321.26562Q179.24849 319.73438 179.56099 318.8125Q179.87349 317.875 180.48286 317.375Q181.10786 316.875 182.04536 316.875Q182.73286 316.875 183.24849 317.15625Q183.77974 317.4375 184.12349 317.96875Q184.46724 318.48438 184.65474 319.23438Q184.84224 319.98438 184.84224 321.26562Q184.84224 322.78125 184.52974 323.70312Q184.23286 324.625 183.60786 325.14062Q182.99849 325.64062 182.04536 325.64062Q180.81099 325.64062 180.09224 324.75Q179.24849 323.6875 179.24849 321.26562ZM180.32661 321.26562Q180.32661 323.375 180.82661 324.07812Q181.32661 324.78125 182.04536 324.78125Q182.77974 324.78125 183.26411 324.07812Q183.76411 323.375 183.76411 321.26562Q183.76411 319.14062 183.26411 318.45312Q182.77974 317.75 182.02974 317.75Q181.31099 317.75 180.87349 318.35938Q180.32661 319.14062 180.32661 321.26562Z" fill-rule="nonzero"/><path fill="#000000" d="M256.99756 325.5L255.95067 325.5L255.95067 318.78125Q255.56004 319.14062 254.93504 319.51562Q254.32567 319.875 253.8413 320.04688L253.8413 319.03125Q254.7163 318.60938 255.37254 318.03125Q256.04443 317.4375 256.32568 316.875L256.99756 316.875L256.99756 325.5ZM260.0288 323.25L261.13818 323.15625Q261.26318 323.96875 261.70068 324.375Q262.1538 324.78125 262.79443 324.78125Q263.54443 324.78125 264.07568 324.20312Q264.60693 323.625 264.60693 322.6875Q264.60693 321.78125 264.0913 321.26562Q263.5913 320.73438 262.76318 320.73438Q262.26318 320.73438 261.8413 320.96875Q261.43506 321.20312 261.20068 321.5625L260.2163 321.4375L261.04443 317.03125L265.32568 317.03125L265.32568 318.03125L261.88818 318.03125L261.43506 320.34375Q262.20068 319.79688 263.04443 319.79688Q264.16943 319.79688 264.93506 320.57812Q265.7163 321.35938 265.7163 322.59375Q265.7163 323.75 265.04443 324.60938Q264.2163 325.64062 262.79443 325.64062Q261.62256 325.64062 260.87256 324.98438Q260.13818 324.32812 260.0288 323.25Z" fill-rule="nonzero"/><path fill="#000000" d="M339.35596 324.48438L339.35596 325.5L333.66846 325.5Q333.66846 325.125 333.79346 324.76562Q334.0122 324.1875 334.48096 323.625Q334.96533 323.0625 335.87158 322.32812Q337.27783 321.17188 337.7622 320.5Q338.2622 319.82812 338.2622 319.23438Q338.2622 318.60938 337.80908 318.1875Q337.35596 317.75 336.6372 317.75Q335.87158 317.75 335.41846 318.20312Q334.96533 318.65625 334.9497 319.46875L333.87158 319.35938Q333.98096 318.14062 334.6997 317.51562Q335.43408 316.875 336.66846 316.875Q337.90283 316.875 338.62158 317.5625Q339.34033 318.25 339.34033 319.26562Q339.34033 319.78125 339.12158 320.28125Q338.91846 320.76562 338.41846 321.32812Q337.93408 321.875 336.80908 322.82812Q335.85596 323.625 335.5747 323.92188Q335.30908 324.20312 335.1372 324.48438L339.35596 324.48438ZM340.80908 321.26562Q340.80908 319.73438 341.12158 318.8125Q341.43408 317.875 342.04346 317.375Q342.66846 316.875 343.60596 316.875Q344.29346 316.875 344.80908 317.15625Q345.34033 317.4375 345.68408 317.96875Q346.02783 318.48438 346.21533 319.23438Q346.40283 319.98438 346.40283 321.26562Q346.40283 322.78125 346.09033 323.70312Q345.79346 324.625 345.16846 325.14062Q344.55908 325.64062 343.60596 325.64062Q342.37158 325.64062 341.65283 324.75Q340.80908 323.6875 340.80908 321.26562ZM341.8872 321.26562Q341.8872 323.375 342.3872 324.07812Q342.8872 324.78125 343.60596 324.78125Q344.34033 324.78125 344.8247 324.07812Q345.3247 323.375 345.3247 321.26562Q345.3247 319.14062 344.8247 318.45312Q344.34033 317.75 343.59033 317.75Q342.87158 317.75 342.43408 318.35938Q341.8872 319.14062 341.8872 321.26562Z" fill-rule="nonzero"/><path fill="#000000" d="M420.13626 324.48438L420.13626 325.5L414.44876 325.5Q414.44876 325.125 414.57376 324.76562Q414.7925 324.1875 415.26126 323.625Q415.74564 323.0625 416.6519 322.32812Q418.05814 321.17188 418.5425 320.5Q419.0425 319.82812 419.0425 319.23438Q419.0425 318.60938 418.5894 318.1875Q418.13626 317.75 417.4175 317.75Q416.6519 317.75 416.19876 318.20312Q415.74564 318.65625 415.73 319.46875L414.6519 319.35938Q414.76126 318.14062 415.48 317.51562Q416.2144 316.875 417.44876 316.875Q418.68314 316.875 419.4019 317.5625Q420.12064 318.25 420.12064 319.26562Q420.12064 319.78125 419.9019 320.28125Q419.69876 320.76562 419.19876 321.32812Q418.7144 321.875 417.5894 322.82812Q416.63626 323.625 416.355 323.92188Q416.0894 324.20312 415.9175 324.48438L420.13626 324.48438ZM421.5894 323.25L422.69876 323.15625Q422.82376 323.96875 423.26126 324.375Q423.7144 324.78125 424.355 324.78125Q425.105 324.78125 425.63626 324.20312Q426.1675 323.625 426.1675 322.6875Q426.1675 321.78125 425.6519 321.26562Q425.1519 320.73438 424.32376 320.73438Q423.82376 320.73438 423.4019 320.96875Q422.99564 321.20312 422.76126 321.5625L421.7769 321.4375L422.605 317.03125L426.88626 317.03125L426.88626 318.03125L423.44876 318.03125L422.99564 320.34375Q423.76126 319.79688 424.605 319.79688Q425.73 319.79688 426.49564 320.57812Q427.2769 321.35938 427.2769 322.59375Q427.2769 323.75 426.605 324.60938Q425.7769 325.64062 424.355 325.64062Q423.18314 325.64062 422.43314 324.98438Q421.69876 324.32812 421.5894 323.25Z" fill-rule="nonzero"/><path fill="#000000" d="M495.3697 323.23438L496.4322 323.09375Q496.60406 323.98438 497.04156 324.39062Q497.47906 324.78125 498.10406 324.78125Q498.85406 324.78125 499.3697 324.26562Q499.8853 323.75 499.8853 322.98438Q499.8853 322.26562 499.40094 321.79688Q498.9322 321.3125 498.1978 321.3125Q497.90094 321.3125 497.4478 321.4375L497.5728 320.5Q497.6822 320.51562 497.7447 320.51562Q498.41656 320.51562 498.9478 320.17188Q499.4947 319.8125 499.4947 319.07812Q499.4947 318.5 499.10406 318.125Q498.71344 317.73438 498.08844 317.73438Q497.47906 317.73438 497.0572 318.125Q496.65094 318.51562 496.54156 319.28125L495.47906 319.09375Q495.66656 318.04688 496.35406 317.46875Q497.04156 316.875 498.0572 316.875Q498.7603 316.875 499.35406 317.1875Q499.9478 317.48438 500.2603 318.0Q500.5728 318.51562 500.5728 319.10938Q500.5728 319.65625 500.27594 320.125Q499.97906 320.57812 499.40094 320.84375Q500.15094 321.01562 500.5728 321.57812Q500.9947 322.125 500.9947 322.96875Q500.9947 324.09375 500.16656 324.875Q499.35406 325.65625 498.10406 325.65625Q496.97906 325.65625 496.22906 324.98438Q495.47906 324.29688 495.3697 323.23438ZM502.3697 321.26562Q502.3697 319.73438 502.6822 318.8125Q502.9947 317.875 503.60406 317.375Q504.22906 316.875 505.16656 316.875Q505.85406 316.875 506.3697 317.15625Q506.90094 317.4375 507.2447 317.96875Q507.58844 318.48438 507.77594 319.23438Q507.96344 319.98438 507.96344 321.26562Q507.96344 322.78125 507.65094 323.70312Q507.35406 324.625 506.72906 325.14062Q506.1197 325.64062 505.16656 325.64062Q503.9322 325.64062 503.21344 324.75Q502.3697 323.6875 502.3697 321.26562ZM503.4478 321.26562Q503.4478 323.375 503.9478 324.07812Q504.4478 324.78125 505.16656 324.78125Q505.90094 324.78125 506.3853 324.07812Q506.8853 323.375 506.8853 321.26562Q506.8853 319.14062 506.3853 318.45312Q505.90094 317.75 505.15094 317.75Q504.4322 317.75 503.9947 318.35938Q503.4478 319.14062 503.4478 321.26562Z" fill-rule="nonzero"/><path fill="#000000" d="M576.15 323.23438L577.2125 323.09375Q577.3844 323.98438 577.8219 324.39062Q578.2594 324.78125 578.8844 324.78125Q579.6344 324.78125 580.15 324.26562Q580.66565 323.75 580.66565 322.98438Q580.66565 322.26562 580.1813 321.79688Q579.7125 321.3125 578.97815 321.3125Q578.6813 321.3125 578.22815 321.4375L578.35315 320.5Q578.4625 320.51562 578.525 320.51562Q579.1969 320.51562 579.72815 320.17188Q580.275 319.8125 580.275 319.07812Q580.275 318.5 579.8844 318.125Q579.4938 317.73438 578.8688 317.73438Q578.2594 317.73438 577.8375 318.125Q577.4313 318.51562 577.3219 319.28125L576.2594 319.09375Q576.4469 318.04688 577.1344 317.46875Q577.8219 316.875 578.8375 316.875Q579.54065 316.875 580.1344 317.1875Q580.72815 317.48438 581.04065 318.0Q581.35315 318.51562 581.35315 319.10938Q581.35315 319.65625 581.0563 320.125Q580.7594 320.57812 580.1813 320.84375Q580.9313 321.01562 581.35315 321.57812Q581.775 322.125 581.775 322.96875Q581.775 324.09375 580.9469 324.875Q580.1344 325.65625 578.8844 325.65625Q577.7594 325.65625 577.0094 324.98438Q576.2594 324.29688 576.15 323.23438ZM583.15 323.25L584.2594 323.15625Q584.3844 323.96875 584.8219 324.375Q585.275 324.78125 585.91565 324.78125Q586.66565 324.78125 587.1969 324.20312Q587.72815 323.625 587.72815 322.6875Q587.72815 321.78125 587.2125 321.26562Q586.7125 320.73438 585.8844 320.73438Q585.3844 320.73438 584.9625 320.96875Q584.5563 321.20312 584.3219 321.5625L583.3375 321.4375L584.16565 317.03125L588.4469 317.03125L588.4469 318.03125L585.0094 318.03125L584.5563 320.34375Q585.3219 319.79688 586.16565 319.79688Q587.29065 319.79688 588.0563 320.57812Q588.8375 321.35938 588.8375 322.59375Q588.8375 323.75 588.16565 324.60938Q587.3375 325.64062 585.91565 325.64062Q584.7438 325.64062 583.9938 324.98438Q583.2594 324.32812 583.15 323.25Z" fill-rule="nonzero"/><path stroke="#4285f4" stroke-width="4.0" stroke-linecap="butt" d="M142.741 16.90601L154.741 16.90601" fill-rule="nonzero"/><path fill="#1a1a1a" d="M165.16287 20.90601L162.88162 12.31226L164.0535 12.31226L165.366 17.952885Q165.56912 18.827885 165.72537 19.702885Q166.0535 18.327885 166.116 18.109135L167.741 12.31226L169.116 12.31226L170.35037 16.65601Q170.8035 18.28101 171.02225 19.702885Q171.1785 18.890385 171.44412 17.827885L172.78787 12.31226L173.9285 12.31226L171.58475 20.90601L170.47537 20.90601L168.6785 14.359135Q168.44412 13.546635 168.39725 13.359135Q168.27225 13.93726 168.14725 14.359135L166.33475 20.90601L165.16287 20.90601ZM174.53787 13.53101L174.53787 12.31226L175.60037 12.31226L175.60037 13.53101L174.53787 13.53101ZM174.53787 20.90601L174.53787 14.68726L175.60037 14.68726L175.60037 20.90601L174.53787 20.90601ZM179.83475 19.96851L179.991 20.890385Q179.53787 20.984135 179.19412 20.984135Q178.616 20.984135 178.3035 20.81226Q177.991 20.62476 177.85037 20.327885Q177.72537 20.03101 177.72537 19.077885L177.72537 15.49976L176.95975 15.49976L176.95975 14.68726L177.72537 14.68726L177.72537 13.140385L178.77225 12.515385L178.77225 14.68726L179.83475 14.68726L179.83475 15.49976L178.77225 15.49976L178.77225 19.140385Q178.77225 19.59351 178.81912 19.71851Q178.88162 19.84351 179.00662 19.921635Q179.13162 19.99976 179.366 19.99976Q179.5535 19.99976 179.83475 19.96851ZM180.53787 20.90601L180.53787 12.31226L181.58475 12.31226L181.58475 15.390385Q182.31912 14.546635 183.44412 14.546635Q184.14725 14.546635 184.64725 14.827885Q185.16287 15.09351 185.38162 15.577885Q185.60037 16.046635 185.60037 16.96851L185.60037 20.90601L184.5535 20.90601L184.5535 16.96851Q184.5535 16.171635 184.20975 15.81226Q183.866 15.452885 183.241 15.452885Q182.77225 15.452885 182.35037 15.702885Q181.94412 15.93726 181.75662 16.359135Q181.58475 16.765385 181.58475 17.49976L181.58475 20.90601L180.53787 20.90601ZM194.69412 17.53101L194.69412 16.53101L198.31912 16.515385L198.31912 19.702885Q197.491 20.37476 196.60037 20.71851Q195.70975 21.046635 194.77225 21.046635Q193.50662 21.046635 192.45975 20.515385Q191.4285 19.96851 190.89725 18.952885Q190.38162 17.921635 190.38162 16.65601Q190.38162 15.390385 190.89725 14.31226Q191.4285 13.21851 192.41287 12.702885Q193.39725 12.171635 194.6785 12.171635Q195.616 12.171635 196.366 12.46851Q197.116 12.765385 197.53787 13.31226Q197.97537 13.84351 198.19412 14.71851L197.1785 14.99976Q196.97537 14.34351 196.6785 13.96851Q196.39725 13.59351 195.866 13.37476Q195.33475 13.140385 194.69412 13.140385Q193.91287 13.140385 193.33475 13.37476Q192.77225 13.609135 192.41287 13.99976Q192.06912 14.390385 191.88162 14.859135Q191.5535 15.65601 191.5535 16.577885Q191.5535 17.734135 191.94412 18.515385Q192.35037 19.28101 193.10037 19.65601Q193.85037 20.03101 194.70975 20.03101Q195.44412 20.03101 196.14725 19.74976Q196.85037 19.452885 197.20975 19.140385L197.20975 17.53101L194.69412 17.53101ZM199.52225 20.90601L199.52225 14.68726L200.47537 14.68726L200.47537 15.62476Q200.83475 14.96851 201.13162 14.765385Q201.44412 14.546635 201.81912 14.546635Q202.35037 14.546635 202.89725 14.87476L202.53787 15.859135Q202.14725 15.62476 201.77225 15.62476Q201.41287 15.62476 201.13162 15.84351Q200.866 16.046635 200.75662 16.421635Q200.56912 16.984135 200.56912 17.640385L200.56912 20.90601L199.52225 20.90601ZM207.60037 20.140385Q207.00662 20.640385 206.45975 20.84351Q205.9285 21.046635 205.3035 21.046635Q204.27225 21.046635 203.72537 20.546635Q203.1785 20.046635 203.1785 19.265385Q203.1785 18.81226 203.38162 18.43726Q203.58475 18.046635 203.9285 17.827885Q204.27225 17.59351 204.69412 17.484135Q204.991 17.390385 205.63162 17.31226Q206.89725 17.171635 207.50662 16.952885Q207.50662 16.734135 207.50662 16.68726Q207.50662 16.03101 207.20975 15.765385Q206.8035 15.421635 206.00662 15.421635Q205.27225 15.421635 204.91287 15.68726Q204.5535 15.93726 204.38162 16.59351L203.35037 16.452885Q203.491 15.796635 203.81912 15.390385Q204.14725 14.984135 204.75662 14.765385Q205.366 14.546635 206.16287 14.546635Q206.95975 14.546635 207.45975 14.734135Q207.95975 14.921635 208.19412 15.202885Q208.4285 15.484135 208.52225 15.921635Q208.56912 16.18726 208.56912 16.890385L208.56912 18.296635Q208.56912 19.765385 208.63162 20.15601Q208.70975 20.546635 208.91287 20.90601L207.8035 20.90601Q207.64725 20.577885 207.60037 20.140385ZM207.50662 17.78101Q206.9285 18.015385 205.78787 18.18726Q205.13162 18.28101 204.866 18.40601Q204.60037 18.515385 204.44412 18.734135Q204.3035 18.952885 204.3035 19.234135Q204.3035 19.65601 204.616 19.93726Q204.94412 20.21851 205.5535 20.21851Q206.16287 20.21851 206.63162 19.952885Q207.116 19.68726 207.33475 19.21851Q207.50662 18.859135 207.50662 18.171635L207.50662 17.78101ZM214.56912 20.90601L214.56912 20.12476Q213.97537 21.046635 212.83475 21.046635Q212.08475 21.046635 211.45975 20.640385Q210.83475 20.21851 210.491 19.484135Q210.14725 18.74976 210.14725 17.796635Q210.14725 16.87476 210.45975 16.109135Q210.77225 15.34351 211.39725 14.952885Q212.02225 14.546635 212.78787 14.546635Q213.35037 14.546635 213.78787 14.78101Q214.22537 15.015385 214.50662 15.390385L214.50662 12.31226L215.5535 12.31226L215.5535 20.90601L214.56912 20.90601ZM211.241 17.796635Q211.241 18.99976 211.741 19.59351Q212.241 20.171635 212.9285 20.171635Q213.616 20.171635 214.10037 19.609135Q214.58475 19.046635 214.58475 17.890385Q214.58475 16.609135 214.08475 16.015385Q213.60037 15.421635 212.88162 15.421635Q212.1785 15.421635 211.70975 15.99976Q211.241 16.56226 211.241 17.796635ZM217.53787 13.53101L217.53787 12.31226L218.60037 12.31226L218.60037 13.53101L217.53787 13.53101ZM217.53787 20.90601L217.53787 14.68726L218.60037 14.68726L218.60037 20.90601L217.53787 20.90601ZM224.78787 18.90601L225.88162 19.03101Q225.63162 19.984135 224.9285 20.515385Q224.22537 21.046635 223.14725 21.046635Q221.78787 21.046635 220.97537 20.202885Q220.1785 19.359135 220.1785 17.84351Q220.1785 16.28101 220.991 15.421635Q221.8035 14.546635 223.08475 14.546635Q224.33475 14.546635 225.116 15.390385Q225.91287 16.234135 225.91287 17.78101Q225.91287 17.87476 225.91287 18.06226L221.27225 18.06226Q221.33475 19.09351 221.85037 19.640385Q222.366 20.171635 223.14725 20.171635Q223.72537 20.171635 224.13162 19.87476Q224.5535 19.56226 224.78787 18.90601ZM221.33475 17.202885L224.8035 17.202885Q224.741 16.40601 224.41287 16.015385Q223.89725 15.40601 223.10037 15.40601Q222.366 15.40601 221.866 15.890385Q221.38162 16.37476 221.33475 17.202885ZM227.53787 20.90601L227.53787 14.68726L228.47537 14.68726L228.47537 15.56226Q229.16287 14.546635 230.45975 14.546635Q231.02225 14.546635 231.491 14.74976Q231.97537 14.952885 232.20975 15.28101Q232.44412 15.609135 232.53787 16.046635Q232.58475 16.34351 232.58475 17.077885L232.58475 20.90601L231.53787 20.90601L231.53787 17.12476Q231.53787 16.46851 231.41287 16.15601Q231.28787 15.84351 230.97537 15.65601Q230.66287 15.452885 230.241 15.452885Q229.56912 15.452885 229.06912 15.890385Q228.58475 16.31226 228.58475 17.49976L228.58475 20.90601L227.53787 20.90601ZM236.83475 19.96851L236.991 20.890385Q236.53787 20.984135 236.19412 20.984135Q235.616 20.984135 235.3035 20.81226Q234.991 20.62476 234.85037 20.327885Q234.72537 20.03101 234.72537 19.077885L234.72537 15.49976L233.95975 15.49976L233.95975 14.68726L234.72537 14.68726L234.72537 13.140385L235.77225 12.515385L235.77225 14.68726L236.83475 14.68726L236.83475 15.49976L235.77225 15.49976L235.77225 19.140385Q235.77225 19.59351 235.81912 19.71851Q235.88162 19.84351 236.00662 19.921635Q236.13162 19.99976 236.366 19.99976Q236.5535 19.99976 236.83475 19.96851ZM240.66287 20.90601L240.66287 12.31226L243.91287 12.31226Q244.75662 12.31226 245.20975 12.390385Q245.85037 12.49976 246.27225 12.796635Q246.70975 13.09351 246.95975 13.62476Q247.22537 14.15601 247.22537 14.796635Q247.22537 15.890385 246.52225 16.65601Q245.83475 17.40601 244.00662 17.40601L241.8035 17.40601L241.8035 20.90601L240.66287 20.90601ZM241.8035 16.40601L244.02225 16.40601Q245.13162 16.40601 245.58475 15.99976Q246.0535 15.577885 246.0535 14.827885Q246.0535 14.296635 245.77225 13.921635Q245.50662 13.53101 245.06912 13.40601Q244.77225 13.327885 244.00662 13.327885L241.8035 13.327885L241.8035 16.40601ZM252.78787 18.90601L253.88162 19.03101Q253.63162 19.984135 252.9285 20.515385Q252.22537 21.046635 251.14725 21.046635Q249.78787 21.046635 248.97537 20.202885Q248.1785 19.359135 248.1785 17.84351Q248.1785 16.28101 248.991 15.421635Q249.8035 14.546635 251.08475 14.546635Q252.33475 14.546635 253.116 15.390385Q253.91287 16.234135 253.91287 17.78101Q253.91287 17.87476 253.91287 18.06226L249.27225 18.06226Q249.33475 19.09351 249.85037 19.640385Q250.366 20.171635 251.14725 20.171635Q251.72537 20.171635 252.13162 19.87476Q252.5535 19.56226 252.78787 18.90601ZM249.33475 17.202885L252.8035 17.202885Q252.741 16.40601 252.41287 16.015385Q251.89725 15.40601 251.10037 15.40601Q250.366 15.40601 249.866 15.890385Q249.38162 16.37476 249.33475 17.202885ZM255.53787 20.90601L255.53787 14.68726L256.47537 14.68726L256.47537 15.56226Q257.16287 14.546635 258.45975 14.546635Q259.02225 14.546635 259.491 14.74976Q259.97537 14.952885 260.20975 15.28101Q260.44412 15.609135 260.53787 16.046635Q260.58475 16.34351 260.58475 17.077885L260.58475 20.90601L259.53787 20.90601L259.53787 17.12476Q259.53787 16.46851 259.41287 16.15601Q259.28787 15.84351 258.97537 15.65601Q258.66287 15.452885 258.241 15.452885Q257.56912 15.452885 257.06912 15.890385Q256.58475 16.31226 256.58475 17.49976L256.58475 20.90601L255.53787 20.90601ZM266.60037 20.140385Q266.00662 20.640385 265.45975 20.84351Q264.9285 21.046635 264.3035 21.046635Q263.27225 21.046635 262.72537 20.546635Q262.1785 20.046635 262.1785 19.265385Q262.1785 18.81226 262.38162 18.43726Q262.58475 18.046635 262.9285 17.827885Q263.27225 17.59351 263.69412 17.484135Q263.991 17.390385 264.63162 17.31226Q265.89725 17.171635 266.50662 16.952885Q266.50662 16.734135 266.50662 16.68726Q266.50662 16.03101 266.20975 15.765385Q265.8035 15.421635 265.00662 15.421635Q264.27225 15.421635 263.91287 15.68726Q263.5535 15.93726 263.38162 16.59351L262.35037 16.452885Q262.491 15.796635 262.81912 15.390385Q263.14725 14.984135 263.75662 14.765385Q264.366 14.546635 265.16287 14.546635Q265.95975 14.546635 266.45975 14.734135Q266.95975 14.921635 267.19412 15.202885Q267.4285 15.484135 267.52225 15.921635Q267.56912 16.18726 267.56912 16.890385L267.56912 18.296635Q267.56912 19.765385 267.63162 20.15601Q267.70975 20.546635 267.91287 20.90601L266.8035 20.90601Q266.64725 20.577885 266.60037 20.140385ZM266.50662 17.78101Q265.9285 18.015385 264.78787 18.18726Q264.13162 18.28101 263.866 18.40601Q263.60037 18.515385 263.44412 18.734135Q263.3035 18.952885 263.3035 19.234135Q263.3035 19.65601 263.616 19.93726Q263.94412 20.21851 264.5535 20.21851Q265.16287 20.21851 265.63162 19.952885Q266.116 19.68726 266.33475 19.21851Q266.50662 18.859135 266.50662 18.171635L266.50662 17.78101ZM269.50662 20.90601L269.50662 12.31226L270.56912 12.31226L270.56912 20.90601L269.50662 20.90601ZM274.83475 19.96851L274.991 20.890385Q274.53787 20.984135 274.19412 20.984135Q273.616 20.984135 273.3035 20.81226Q272.991 20.62476 272.85037 20.327885Q272.72537 20.03101 272.72537 19.077885L272.72537 15.49976L271.95975 15.49976L271.95975 14.68726L272.72537 14.68726L272.72537 13.140385L273.77225 12.515385L273.77225 14.68726L274.83475 14.68726L274.83475 15.49976L273.77225 15.49976L273.77225 19.140385Q273.77225 19.59351 273.81912 19.71851Q273.88162 19.84351 274.00662 19.921635Q274.13162 19.99976 274.366 19.99976Q274.5535 19.99976 274.83475 19.96851ZM275.491 23.296635L275.366 22.31226Q275.70975 22.40601 275.97537 22.40601Q276.31912 22.40601 276.52225 22.28101Q276.741 22.171635 276.88162 21.96851Q276.97537 21.796635 277.20975 21.171635Q277.22537 21.09351 277.3035 20.921635L274.9285 14.68726L276.06912 14.68726L277.366 18.28101Q277.616 18.96851 277.81912 19.734135Q278.00662 18.99976 278.25662 18.31226L279.58475 14.68726L280.63162 14.68726L278.27225 21.015385Q277.88162 22.03101 277.6785 22.421635Q277.39725 22.952885 277.02225 23.18726Q276.66287 23.43726 276.16287 23.43726Q275.866 23.43726 275.491 23.296635Z" fill-rule="nonzero"/><path stroke="#ea4335" stroke-width="4.0" stroke-linecap="butt" d="M295.741 16.90601L307.741 16.90601" fill-rule="nonzero"/><path fill="#1a1a1a" d="M318.16287 20.90601L315.88162 12.31226L317.0535 12.31226L318.366 17.952885Q318.56912 18.827885 318.72537 19.702885Q319.0535 18.327885 319.116 18.109135L320.741 12.31226L322.116 12.31226L323.35037 16.65601Q323.8035 18.28101 324.02225 19.702885Q324.1785 18.890385 324.44412 17.827885L325.78787 12.31226L326.9285 12.31226L324.58475 20.90601L323.47537 20.90601L321.6785 14.359135Q321.44412 13.546635 321.39725 13.359135Q321.27225 13.93726 321.14725 14.359135L319.33475 20.90601L318.16287 20.90601ZM327.53787 13.53101L327.53787 12.31226L328.60037 12.31226L328.60037 13.53101L327.53787 13.53101ZM327.53787 20.90601L327.53787 14.68726L328.60037 14.68726L328.60037 20.90601L327.53787 20.90601ZM332.83475 19.96851L332.991 20.890385Q332.53787 20.984135 332.19412 20.984135Q331.616 20.984135 331.3035 20.81226Q330.991 20.62476 330.85037 20.327885Q330.72537 20.03101 330.72537 19.077885L330.72537 15.49976L329.95975 15.49976L329.95975 14.68726L330.72537 14.68726L330.72537 13.140385L331.77225 12.515385L331.77225 14.68726L332.83475 14.68726L332.83475 15.49976L331.77225 15.49976L331.77225 19.140385Q331.77225 19.59351 331.81912 19.71851Q331.88162 19.84351 332.00662 19.921635Q332.13162 19.99976 332.366 19.99976Q332.5535 19.99976 332.83475 19.96851ZM333.53787 20.90601L333.53787 12.31226L334.58475 12.31226L334.58475 15.390385Q335.31912 14.546635 336.44412 14.546635Q337.14725 14.546635 337.64725 14.827885Q338.16287 15.09351 338.38162 15.577885Q338.60037 16.046635 338.60037 16.96851L338.60037 20.90601L337.5535 20.90601L337.5535 16.96851Q337.5535 16.171635 337.20975 15.81226Q336.866 15.452885 336.241 15.452885Q335.77225 15.452885 335.35037 15.702885Q334.94412 15.93726 334.75662 16.359135Q334.58475 16.765385 334.58475 17.49976L334.58475 20.90601L333.53787 20.90601ZM340.14725 17.796635Q340.14725 16.06226 341.10037 15.234135Q341.89725 14.546635 343.0535 14.546635Q344.33475 14.546635 345.14725 15.390385Q345.97537 16.21851 345.97537 17.702885Q345.97537 18.90601 345.616 19.59351Q345.25662 20.28101 344.5535 20.671635Q343.866 21.046635 343.0535 21.046635Q341.75662 21.046635 340.94412 20.21851Q340.14725 19.37476 340.14725 17.796635ZM341.22537 17.796635Q341.22537 18.984135 341.741 19.577885Q342.27225 20.171635 343.0535 20.171635Q343.85037 20.171635 344.366 19.577885Q344.88162 18.984135 344.88162 17.765385Q344.88162 16.609135 344.35037 16.015385Q343.83475 15.421635 343.0535 15.421635Q342.27225 15.421635 341.741 16.015385Q341.22537 16.59351 341.22537 17.796635ZM351.616 20.90601L351.616 19.984135Q350.88162 21.046635 349.63162 21.046635Q349.08475 21.046635 348.60037 20.84351Q348.13162 20.62476 347.89725 20.31226Q347.66287 19.984135 347.56912 19.515385Q347.50662 19.21851 347.50662 18.53101L347.50662 14.68726L348.56912 14.68726L348.56912 18.140385Q348.56912 18.952885 348.63162 19.24976Q348.72537 19.65601 349.03787 19.90601Q349.366 20.140385 349.85037 20.140385Q350.31912 20.140385 350.72537 19.90601Q351.14725 19.65601 351.31912 19.234135Q351.50662 18.81226 351.50662 18.015385L351.50662 14.68726L352.5535 14.68726L352.5535 20.90601L351.616 20.90601ZM356.83475 19.96851L356.991 20.890385Q356.53787 20.984135 356.19412 20.984135Q355.616 20.984135 355.3035 20.81226Q354.991 20.62476 354.85037 20.327885Q354.72537 20.03101 354.72537 19.077885L354.72537 15.49976L353.95975 15.49976L353.95975 14.68726L354.72537 14.68726L354.72537 13.140385L355.77225 12.515385L355.77225 14.68726L356.83475 14.68726L356.83475 15.49976L355.77225 15.49976L355.77225 19.140385Q355.77225 19.59351 355.81912 19.71851Q355.88162 19.84351 356.00662 19.921635Q356.13162 19.99976 356.366 19.99976Q356.5535 19.99976 356.83475 19.96851ZM364.69412 17.53101L364.69412 16.53101L368.31912 16.515385L368.31912 19.702885Q367.491 20.37476 366.60037 20.71851Q365.70975 21.046635 364.77225 21.046635Q363.50662 21.046635 362.45975 20.515385Q361.4285 19.96851 360.89725 18.952885Q360.38162 17.921635 360.38162 16.65601Q360.38162 15.390385 360.89725 14.31226Q361.4285 13.21851 362.41287 12.702885Q363.39725 12.171635 364.6785 12.171635Q365.616 12.171635 366.366 12.46851Q367.116 12.765385 367.53787 13.31226Q367.97537 13.84351 368.19412 14.71851L367.1785 14.99976Q366.97537 14.34351 366.6785 13.96851Q366.39725 13.59351 365.866 13.37476Q365.33475 13.140385 364.69412 13.140385Q363.91287 13.140385 363.33475 13.37476Q362.77225 13.609135 362.41287 13.99976Q362.06912 14.390385 361.88162 14.859135Q361.5535 15.65601 361.5535 16.577885Q361.5535 17.734135 361.94412 18.515385Q362.35037 19.28101 363.10037 19.65601Q363.85037 20.03101 364.70975 20.03101Q365.44412 20.03101 366.14725 19.74976Q366.85037 19.452885 367.20975 19.140385L367.20975 17.53101L364.69412 17.53101ZM369.52225 20.90601L369.52225 14.68726L370.47537 14.68726L370.47537 15.62476Q370.83475 14.96851 371.13162 14.765385Q371.44412 14.546635 371.81912 14.546635Q372.35037 14.546635 372.89725 14.87476L372.53787 15.859135Q372.14725 15.62476 371.77225 15.62476Q371.41287 15.62476 371.13162 15.84351Q370.866 16.046635 370.75662 16.421635Q370.56912 16.984135 370.56912 17.640385L370.56912 20.90601L369.52225 20.90601ZM377.60037 20.140385Q377.00662 20.640385 376.45975 20.84351Q375.9285 21.046635 375.3035 21.046635Q374.27225 21.046635 373.72537 20.546635Q373.1785 20.046635 373.1785 19.265385Q373.1785 18.81226 373.38162 18.43726Q373.58475 18.046635 373.9285 17.827885Q374.27225 17.59351 374.69412 17.484135Q374.991 17.390385 375.63162 17.31226Q376.89725 17.171635 377.50662 16.952885Q377.50662 16.734135 377.50662 16.68726Q377.50662 16.03101 377.20975 15.765385Q376.8035 15.421635 376.00662 15.421635Q375.27225 15.421635 374.91287 15.68726Q374.5535 15.93726 374.38162 16.59351L373.35037 16.452885Q373.491 15.796635 373.81912 15.390385Q374.14725 14.984135 374.75662 14.765385Q375.366 14.546635 376.16287 14.546635Q376.95975 14.546635 377.45975 14.734135Q377.95975 14.921635 378.19412 15.202885Q378.4285 15.484135 378.52225 15.921635Q378.56912 16.18726 378.56912 16.890385L378.56912 18.296635Q378.56912 19.765385 378.63162 20.15601Q378.70975 20.546635 378.91287 20.90601L377.8035 20.90601Q377.64725 20.577885 377.60037 20.140385ZM377.50662 17.78101Q376.9285 18.015385 375.78787 18.18726Q375.13162 18.28101 374.866 18.40601Q374.60037 18.515385 374.44412 18.734135Q374.3035 18.952885 374.3035 19.234135Q374.3035 19.65601 374.616 19.93726Q374.94412 20.21851 375.5535 20.21851Q376.16287 20.21851 376.63162 19.952885Q377.116 19.68726 377.33475 19.21851Q377.50662 18.859135 377.50662 18.171635L377.50662 17.78101ZM384.56912 20.90601L384.56912 20.12476Q383.97537 21.046635 382.83475 21.046635Q382.08475 21.046635 381.45975 20.640385Q380.83475 20.21851 380.491 19.484135Q380.14725 18.74976 380.14725 17.796635Q380.14725 16.87476 380.45975 16.109135Q380.77225 15.34351 381.39725 14.952885Q382.02225 14.546635 382.78787 14.546635Q383.35037 14.546635 383.78787 14.78101Q384.22537 15.015385 384.50662 15.390385L384.50662 12.31226L385.5535 12.31226L385.5535 20.90601L384.56912 20.90601ZM381.241 17.796635Q381.241 18.99976 381.741 19.59351Q382.241 20.171635 382.9285 20.171635Q383.616 20.171635 384.10037 19.609135Q384.58475 19.046635 384.58475 17.890385Q384.58475 16.609135 384.08475 16.015385Q383.60037 15.421635 382.88162 15.421635Q382.1785 15.421635 381.70975 15.99976Q381.241 16.56226 381.241 17.796635ZM387.53787 13.53101L387.53787 12.31226L388.60037 12.31226L388.60037 13.53101L387.53787 13.53101ZM387.53787 20.90601L387.53787 14.68726L388.60037 14.68726L388.60037 20.90601L387.53787 20.90601ZM394.78787 18.90601L395.88162 19.03101Q395.63162 19.984135 394.9285 20.515385Q394.22537 21.046635 393.14725 21.046635Q391.78787 21.046635 390.97537 20.202885Q390.1785 19.359135 390.1785 17.84351Q390.1785 16.28101 390.991 15.421635Q391.8035 14.546635 393.08475 14.546635Q394.33475 14.546635 395.116 15.390385Q395.91287 16.234135 395.91287 17.78101Q395.91287 17.87476 395.91287 18.06226L391.27225 18.06226Q391.33475 19.09351 391.85037 19.640385Q392.366 20.171635 393.14725 20.171635Q393.72537 20.171635 394.13162 19.87476Q394.5535 19.56226 394.78787 18.90601ZM391.33475 17.202885L394.8035 17.202885Q394.741 16.40601 394.41287 16.015385Q393.89725 15.40601 393.10037 15.40601Q392.366 15.40601 391.866 15.890385Q391.38162 16.37476 391.33475 17.202885ZM397.53787 20.90601L397.53787 14.68726L398.47537 14.68726L398.47537 15.56226Q399.16287 14.546635 400.45975 14.546635Q401.02225 14.546635 401.491 14.74976Q401.97537 14.952885 402.20975 15.28101Q402.44412 15.609135 402.53787 16.046635Q402.58475 16.34351 402.58475 17.077885L402.58475 20.90601L401.53787 20.90601L401.53787 17.12476Q401.53787 16.46851 401.41287 16.15601Q401.28787 15.84351 400.97537 15.65601Q400.66287 15.452885 400.241 15.452885Q399.56912 15.452885 399.06912 15.890385Q398.58475 16.31226 398.58475 17.49976L398.58475 20.90601L397.53787 20.90601ZM406.83475 19.96851L406.991 20.890385Q406.53787 20.984135 406.19412 20.984135Q405.616 20.984135 405.3035 20.81226Q404.991 20.62476 404.85037 20.327885Q404.72537 20.03101 404.72537 19.077885L404.72537 15.49976L403.95975 15.49976L403.95975 14.68726L404.72537 14.68726L404.72537 13.140385L405.77225 12.515385L405.77225 14.68726L406.83475 14.68726L406.83475 15.49976L405.77225 15.49976L405.77225 19.140385Q405.77225 19.59351 405.81912 19.71851Q405.88162 19.84351 406.00662 19.921635Q406.13162 19.99976 406.366 19.99976Q406.5535 19.99976 406.83475 19.96851ZM410.66287 20.90601L410.66287 12.31226L413.91287 12.31226Q414.75662 12.31226 415.20975 12.390385Q415.85037 12.49976 416.27225 12.796635Q416.70975 13.09351 416.95975 13.62476Q417.22537 14.15601 417.22537 14.796635Q417.22537 15.890385 416.52225 16.65601Q415.83475 17.40601 414.00662 17.40601L411.8035 17.40601L411.8035 20.90601L410.66287 20.90601ZM411.8035 16.40601L414.02225 16.40601Q415.13162 16.40601 415.58475 15.99976Q416.0535 15.577885 416.0535 14.827885Q416.0535 14.296635 415.77225 13.921635Q415.50662 13.53101 415.06912 13.40601Q414.77225 13.327885 414.00662 13.327885L411.8035 13.327885L411.8035 16.40601ZM422.78787 18.90601L423.88162 19.03101Q423.63162 19.984135 422.9285 20.515385Q422.22537 21.046635 421.14725 21.046635Q419.78787 21.046635 418.97537 20.202885Q418.1785 19.359135 418.1785 17.84351Q418.1785 16.28101 418.991 15.421635Q419.8035 14.546635 421.08475 14.546635Q422.33475 14.546635 423.116 15.390385Q423.91287 16.234135 423.91287 17.78101Q423.91287 17.87476 423.91287 18.06226L419.27225 18.06226Q419.33475 19.09351 419.85037 19.640385Q420.366 20.171635 421.14725 20.171635Q421.72537 20.171635 422.13162 19.87476Q422.5535 19.56226 422.78787 18.90601ZM419.33475 17.202885L422.8035 17.202885Q422.741 16.40601 422.41287 16.015385Q421.89725 15.40601 421.10037 15.40601Q420.366 15.40601 419.866 15.890385Q419.38162 16.37476 419.33475 17.202885ZM425.53787 20.90601L425.53787 14.68726L426.47537 14.68726L426.47537 15.56226Q427.16287 14.546635 428.45975 14.546635Q429.02225 14.546635 429.491 14.74976Q429.97537 14.952885 430.20975 15.28101Q430.44412 15.609135 430.53787 16.046635Q430.58475 16.34351 430.58475 17.077885L430.58475 20.90601L429.53787 20.90601L429.53787 17.12476Q429.53787 16.46851 429.41287 16.15601Q429.28787 15.84351 428.97537 15.65601Q428.66287 15.452885 428.241 15.452885Q427.56912 15.452885 427.06912 15.890385Q426.58475 16.31226 426.58475 17.49976L426.58475 20.90601L425.53787 20.90601ZM436.60037 20.140385Q436.00662 20.640385 435.45975 20.84351Q434.9285 21.046635 434.3035 21.046635Q433.27225 21.046635 432.72537 20.546635Q432.1785 20.046635 432.1785 19.265385Q432.1785 18.81226 432.38162 18.43726Q432.58475 18.046635 432.9285 17.827885Q433.27225 17.59351 433.69412 17.484135Q433.991 17.390385 434.63162 17.31226Q435.89725 17.171635 436.50662 16.952885Q436.50662 16.734135 436.50662 16.68726Q436.50662 16.03101 436.20975 15.765385Q435.8035 15.421635 435.00662 15.421635Q434.27225 15.421635 433.91287 15.68726Q433.5535 15.93726 433.38162 16.59351L432.35037 16.452885Q432.491 15.796635 432.81912 15.390385Q433.14725 14.984135 433.75662 14.765385Q434.366 14.546635 435.16287 14.546635Q435.95975 14.546635 436.45975 14.734135Q436.95975 14.921635 437.19412 15.202885Q437.4285 15.484135 437.52225 15.921635Q437.56912 16.18726 437.56912 16.890385L437.56912 18.296635Q437.56912 19.765385 437.63162 20.15601Q437.70975 20.546635 437.91287 20.90601L436.8035 20.90601Q436.64725 20.577885 436.60037 20.140385ZM436.50662 17.78101Q435.9285 18.015385 434.78787 18.18726Q434.13162 18.28101 433.866 18.40601Q433.60037 18.515385 433.44412 18.734135Q433.3035 18.952885 433.3035 19.234135Q433.3035 19.65601 433.616 19.93726Q433.94412 20.21851 434.5535 20.21851Q435.16287 20.21851 435.63162 19.952885Q436.116 19.68726 436.33475 19.21851Q436.50662 18.859135 436.50662 18.171635L436.50662 17.78101ZM439.50662 20.90601L439.50662 12.31226L440.56912 12.31226L440.56912 20.90601L439.50662 20.90601ZM444.83475 19.96851L444.991 20.890385Q444.53787 20.984135 444.19412 20.984135Q443.616 20.984135 443.3035 20.81226Q442.991 20.62476 442.85037 20.327885Q442.72537 20.03101 442.72537 19.077885L442.72537 15.49976L441.95975 15.49976L441.95975 14.68726L442.72537 14.68726L442.72537 13.140385L443.77225 12.515385L443.77225 14.68726L444.83475 14.68726L444.83475 15.49976L443.77225 15.49976L443.77225 19.140385Q443.77225 19.59351 443.81912 19.71851Q443.88162 19.84351 444.00662 19.921635Q444.13162 19.99976 444.366 19.99976Q444.5535 19.99976 444.83475 19.96851ZM445.491 23.296635L445.366 22.31226Q445.70975 22.40601 445.97537 22.40601Q446.31912 22.40601 446.52225 22.28101Q446.741 22.171635 446.88162 21.96851Q446.97537 21.796635 447.20975 21.171635Q447.22537 21.09351 447.3035 20.921635L444.9285 14.68726L446.06912 14.68726L447.366 18.28101Q447.616 18.96851 447.81912 19.734135Q448.00662 18.99976 448.25662 18.31226L449.58475 14.68726L450.63162 14.68726L448.27225 21.015385Q447.88162 22.03101 447.6785 22.421635Q447.39725 22.952885 447.02225 23.18726Q446.66287 23.43726 446.16287 23.43726Q445.866 23.43726 445.491 23.296635Z" fill-rule="nonzero"/></svg>